<?xml version="1.0" encoding="UTF-8"?>
<svg id="Capa_1" data-name="Capa 1" xmlns="http://www.w3.org/2000/svg" viewBox="0 0 223.9 223.9">
  <defs>
    <style>
      .cls-1 {
        fill: #fff;
      }

      .cls-2 {
        opacity: .4;
      }
    </style>
  </defs>
  <g class="cls-2">
    <g>
      <path class="cls-1" d="m221,223.9c1.5,0,2.8-1.2,2.8-2.8s-1.3-2.9-2.9-2.9c-1.5-.1-2.8,1.2-2.8,2.8s1.3,2.9,2.9,2.9Z"/>
      <path class="cls-1" d="m199.1,223.8c1.6,0,2.9-1.3,2.9-2.9.1-1.5-1.2-2.8-2.8-2.8s-2.9,1.3-2.9,2.9,1.3,2.9,2.8,2.8Z"/>
      <path class="cls-1" d="m174.5,221c0,1.6,1.3,2.9,2.8,2.8,1.5.1,2.8-1.2,2.8-2.8s-1.2-2.8-2.8-2.8c-1.5-.1-2.8,1.2-2.8,2.8h0Z"/>
      <path class="cls-1" d="m155.5,223.9c1.6-.1,2.9-1.3,2.9-2.9s-1.3-2.9-2.9-2.9c-1.5,0-2.8,1.3-2.8,2.9s1.3,2.9,2.8,2.9Z"/>
      <path class="cls-1" d="m133.7,223.9c1.6,0,2.9-1.3,2.9-2.9-.1-1.6-1.3-2.9-2.9-2.9-1.5,0-2.8,1.3-2.8,2.9s1.3,2.9,2.8,2.9Z"/>
      <path class="cls-1" d="m111.9,223.8c1.5.1,2.8-1.2,2.8-2.8s-1.2-2.8-2.8-2.8c-1.5-.1-2.8,1.2-2.8,2.8s1.2,2.9,2.8,2.8Z"/>
      <path class="cls-1" d="m87.3,221c0,1.6,1.2,2.8,2.8,2.7,1.5.1,2.8-1.2,2.8-2.8s-1.3-2.8-2.8-2.8-2.8,1.3-2.8,2.9h0Z"/>
      <path class="cls-1" d="m68.3,223.9c1.6,0,2.9-1.3,2.9-2.9-.1-1.6-1.3-2.9-2.9-2.9-1.6.1-2.9,1.3-2.9,2.9s1.3,2.9,2.9,2.9Z"/>
      <path class="cls-1" d="m43.6,221c0,1.6,1.3,2.8,2.9,2.8s2.9-1.2,2.9-2.8-1.3-2.9-2.9-2.9c-1.6.1-2.9,1.3-2.9,2.9h0Z"/>
      <path class="cls-1" d="m24.7,223.9c1.5-.1,2.8-1.3,2.8-2.9s-1.2-2.9-2.8-2.9c-1.6.1-2.9,1.3-2.9,2.9s1.3,2.9,2.9,2.9Z"/>
      <path class="cls-1" d="m2.9,223.9c1.6,0,2.9-1.3,2.9-2.9-.1-1.6-1.3-2.9-2.9-2.9C1.3,218.2,0,219.4,0,221s1.3,2.9,2.9,2.9Z"/>
    </g>
    <g>
      <path class="cls-1" d="m221,202.1c1.5.1,2.8-1.2,2.8-2.8s-1.3-2.9-2.9-2.9c-1.5,0-2.8,1.2-2.8,2.8s1.3,2.8,2.9,2.9Z"/>
      <path class="cls-1" d="m199.2,202.1c1.6,0,2.9-1.3,2.9-2.9s-1.3-2.9-2.9-2.9c-1.6.1-2.9,1.3-2.9,2.9s1.3,2.9,2.9,2.9Z"/>
      <path class="cls-1" d="m174.5,199.2c0,1.6,1.3,2.8,2.9,2.8,1.5,0,2.8-1.2,2.8-2.8s-1.4-2.9-2.9-2.9-2.8,1.3-2.8,2.9h0Z"/>
      <path class="cls-1" d="m155.6,202.1c1.5,0,2.8-1.2,2.8-2.8s-1.3-2.9-2.9-2.9c-1.5-.1-2.8,1.2-2.8,2.8s1.4,2.9,2.9,2.9Z"/>
      <path class="cls-1" d="m133.6,202c1.6,0,2.9-1.3,2.9-2.9s-1.2-2.8-2.8-2.8c-1.5,0-2.8,1.3-2.8,2.9s1.2,2.8,2.7,2.8Z"/>
      <path class="cls-1" d="m111.8,202c1.6,0,2.9-1.3,2.9-2.9.1-1.5-1.2-2.8-2.8-2.8-1.5,0-2.8,1.3-2.8,2.9s1.2,2.8,2.7,2.8Z"/>
      <path class="cls-1" d="m87.3,199.2c0,1.6,1.2,2.8,2.9,2.8,1.5.1,2.8-1.2,2.8-2.8s-1.4-2.9-2.9-2.9-2.8,1.3-2.8,2.9h0Z"/>
      <path class="cls-1" d="m68.3,202.1c1.6,0,2.9-1.3,2.9-2.9s-1.3-2.9-2.9-2.9c-1.6.1-2.9,1.3-2.9,2.9.1,1.6,1.3,2.8,2.9,2.9Z"/>
      <path class="cls-1" d="m43.6,199.2c0,1.6,1.3,2.8,2.9,2.8s2.9-1.2,2.9-2.8-1.3-2.9-2.9-2.9-2.9,1.3-2.9,2.9h0Z"/>
      <path class="cls-1" d="m24.7,202.1c1.5,0,2.8-1.3,2.8-2.9s-1.2-2.9-2.8-2.9-2.9,1.3-2.9,2.9,1.4,2.9,2.9,2.9Z"/>
      <path class="cls-1" d="m2.9,202.1c1.6,0,2.9-1.3,2.9-2.9s-1.3-2.9-2.9-2.9C1.3,196.4,0,197.6,0,199.2s1.3,2.8,2.9,2.9Z"/>
    </g>
    <g>
      <path class="cls-1" d="m218.1,177.4c0,1.6,1.3,2.8,2.8,2.9,1.6,0,2.9-1.3,2.9-2.9s-1.3-2.9-2.9-2.9c-1.5,0-2.8,1.3-2.8,2.9h0Z"/>
      <path class="cls-1" d="m196.3,177.4c0,1.6,1.3,2.8,2.8,2.9,1.6,0,2.9-1.3,2.9-2.9s-1.3-2.9-2.9-2.9c-1.5,0-2.8,1.3-2.8,2.9h0Z"/>
      <path class="cls-1" d="m177.3,180.2c1.5.1,2.8-1.2,2.8-2.8.1-1.6-1.3-2.9-2.8-2.9s-2.8,1.3-2.8,2.9,1.3,2.8,2.8,2.8Z"/>
      <path class="cls-1" d="m155.5,180.2c1.5,0,2.8-1.2,2.8-2.8.1-1.6-1.2-2.9-2.8-2.9-1.5,0-2.8,1.3-2.8,2.9s1.3,2.8,2.8,2.8Z"/>
      <path class="cls-1" d="m130.9,177.4c0,1.5,1.3,2.8,2.8,2.8s2.8-1.2,2.8-2.8c.1-1.6-1.2-2.9-2.8-2.9-1.5,0-2.8,1.3-2.8,2.9h0Z"/>
      <path class="cls-1" d="m109.1,177.4c0,1.6,1.2,2.8,2.7,2.9,1.6,0,2.9-1.3,2.9-2.9.1-1.6-1.2-2.9-2.8-2.9-1.5,0-2.8,1.3-2.8,2.9h0Z"/>
      <path class="cls-1" d="m90.1,180.2c1.5.1,2.8-1.2,2.8-2.8.1-1.6-1.2-2.9-2.8-2.9-1.5,0-2.8,1.3-2.8,2.9s1.2,2.8,2.8,2.8Z"/>
      <path class="cls-1" d="m65.4,177.4c0,1.5,1.4,2.8,2.9,2.8s2.8-1.2,2.8-2.8-1.4-2.9-2.9-2.9-2.8,1.3-2.8,2.9h0Z"/>
      <path class="cls-1" d="m43.6,177.4c0,1.5,1.3,2.8,2.9,2.8s2.9-1.2,2.9-2.8-1.3-2.9-2.9-2.9-2.9,1.3-2.9,2.9h0Z"/>
      <path class="cls-1" d="m24.7,180.2c1.5,0,2.8-1.2,2.8-2.8s-1.2-2.9-2.8-2.9-2.9,1.3-2.9,2.9,1.4,2.8,2.9,2.8Z"/>
      <path class="cls-1" d="m0,177.4c0,1.6,1.3,2.8,2.8,2.9,1.6,0,2.9-1.3,2.9-2.9s-1.4-2.9-2.9-2.9S0,175.8,0,177.4H0Z"/>
    </g>
    <g>
      <path class="cls-1" d="m221,158.5c1.6-.1,2.9-1.3,2.9-2.9-.1-1.6-1.3-2.9-2.9-2.9s-2.9,1.3-2.9,2.9,1.3,2.8,2.9,2.9Z"/>
      <path class="cls-1" d="m199.1,158.4c1.5.1,2.8-1.2,2.8-2.8.1-1.5-1.2-2.8-2.8-2.8-1.5-.1-2.8,1.2-2.8,2.8s1.3,2.8,2.8,2.8Z"/>
      <path class="cls-1" d="m177.3,158.4c1.5.1,2.8-1.2,2.8-2.8.1-1.5-1.2-2.8-2.8-2.8-1.5-.1-2.8,1.2-2.8,2.8s1.3,2.8,2.8,2.8Z"/>
      <path class="cls-1" d="m155.5,158.4c1.5.1,2.8-1.2,2.8-2.8.1-1.5-1.2-2.8-2.8-2.8-1.5-.1-2.8,1.2-2.8,2.8s1.3,2.8,2.8,2.8Z"/>
      <path class="cls-1" d="m133.8,158.5c1.5.1,2.8-1.2,2.8-2.8s-1.3-2.9-2.9-2.9c-1.5,0-2.8,1.2-2.8,2.8s1.3,2.8,2.9,2.9Z"/>
      <path class="cls-1" d="m112,158.5c1.5,0,2.8-1.2,2.8-2.8-.1-1.6-1.3-2.9-2.9-2.9-1.5-.1-2.8,1.2-2.8,2.8s1.4,2.9,2.9,2.9Z"/>
      <path class="cls-1" d="m90.1,158.4c1.6,0,2.9-1.3,2.9-2.9.1-1.5-1.2-2.8-2.8-2.8-1.6.1-2.9,1.3-2.9,2.9s1.2,2.8,2.8,2.8Z"/>
      <path class="cls-1" d="m68.3,158.5c1.6-.1,2.9-1.3,2.9-2.9s-1.3-2.9-2.9-2.9c-1.6.1-2.9,1.3-2.9,2.9.1,1.6,1.3,2.8,2.9,2.9Z"/>
      <path class="cls-1" d="m43.6,155.6c0,1.6,1.2,2.9,2.8,2.9s2.9-1.2,2.9-2.8-1.3-2.9-2.9-2.9c-1.5,0-2.8,1.2-2.8,2.8h0Z"/>
      <path class="cls-1" d="m24.7,158.4c1.5,0,2.8-1.2,2.8-2.8s-1.2-2.9-2.8-2.9-2.9,1.3-2.9,2.9,1.4,2.8,2.9,2.8Z"/>
      <path class="cls-1" d="m2.9,158.5c1.6,0,2.9-1.3,2.9-2.9-.1-1.6-1.3-2.9-2.9-2.9S0,154,0,155.6s1.3,2.8,2.9,2.9Z"/>
    </g>
    <g>
      <path class="cls-1" d="m220.9,136.6c1.6,0,2.9-1.3,2.9-2.9,0-1.5-1.2-2.8-2.8-2.8s-2.9,1.3-2.9,2.9,1.3,2.8,2.8,2.8Z"/>
      <path class="cls-1" d="m199.1,136.6c1.6,0,2.9-1.3,2.9-2.9,0-1.5-1.2-2.8-2.8-2.8s-2.9,1.3-2.9,2.9,1.3,2.8,2.8,2.8Z"/>
      <path class="cls-1" d="m174.5,133.8c0,1.5,1.3,2.8,2.9,2.8,1.5.1,2.8-1.2,2.8-2.8s-1.4-2.9-2.9-2.9-2.8,1.3-2.8,2.9h0Z"/>
      <path class="cls-1" d="m155.4,136.6c1.6,0,2.9-1.3,2.9-2.9,0-1.5-1.2-2.8-2.8-2.8-1.5,0-2.8,1.3-2.8,2.9s1.3,2.8,2.7,2.8Z"/>
      <path class="cls-1" d="m133.7,136.7c1.6,0,2.9-1.3,2.9-2.9s-1.3-2.9-2.9-2.9c-1.5,0-2.8,1.3-2.8,2.9s1.2,2.9,2.8,2.9Z"/>
      <path class="cls-1" d="m111.9,136.7c1.6,0,2.9-1.3,2.9-2.9s-1.3-2.9-2.9-2.9c-1.5.1-2.8,1.3-2.8,2.9s1.2,2.8,2.8,2.9Z"/>
      <path class="cls-1" d="m87.3,133.8c-.1,1.5,1.2,2.8,2.7,2.9,1.6,0,2.9-1.3,2.9-2.9.1-1.5-1.2-2.8-2.8-2.8-1.5-.1-2.8,1.2-2.8,2.8h0Z"/>
      <path class="cls-1" d="m68.3,136.7c1.6-.1,2.9-1.3,2.9-2.9s-1.3-2.9-2.9-2.9-2.9,1.3-2.9,2.9c.1,1.5,1.3,2.8,2.9,2.9Z"/>
      <path class="cls-1" d="m43.6,133.8c0,1.5,1.3,2.8,2.9,2.8s2.9-1.3,2.9-2.9-1.3-2.8-2.9-2.8-2.9,1.3-2.9,2.9h0Z"/>
      <path class="cls-1" d="m21.8,133.8c0,1.5,1.3,2.8,2.9,2.8,1.5,0,2.8-1.3,2.8-2.8s-1.2-2.8-2.8-2.8c-1.6-.1-2.9,1.2-2.9,2.8h0Z"/>
      <path class="cls-1" d="m2.9,136.7c1.6-.1,2.9-1.3,2.9-2.9s-1.3-2.9-2.9-2.9S0,132.2,0,133.8s1.3,2.8,2.9,2.9Z"/>
    </g>
    <g>
      <path class="cls-1" d="m220.9,114.7c1.6,0,2.9-1.4,2.9-2.9s-1.2-2.8-2.8-2.8-2.9,1.3-2.9,2.9,1.3,2.9,2.8,2.8Z"/>
      <path class="cls-1" d="m199.2,114.8c1.6,0,2.9-1.3,2.9-2.9s-1.3-2.9-2.9-2.9-2.9,1.3-2.9,2.9,1.3,2.9,2.9,2.9Z"/>
      <path class="cls-1" d="m174.5,111.9c0,1.6,1.3,2.9,2.8,2.9,1.6,0,2.9-1.3,2.9-2.9-.1-1.6-1.4-2.9-2.9-2.9s-2.8,1.3-2.8,2.9h0Z"/>
      <path class="cls-1" d="m155.5,114.8c1.6,0,2.9-1.3,2.9-2.9-.1-1.6-1.3-2.9-2.9-2.9-1.5.1-2.8,1.3-2.8,2.9s1.3,2.9,2.8,2.9Z"/>
      <path class="cls-1" d="m133.8,114.8c1.5.1,2.8-1.2,2.8-2.8s-1.3-2.9-2.9-2.9c-1.5,0-2.8,1.2-2.8,2.8s1.3,2.9,2.9,2.9Z"/>
      <path class="cls-1" d="m112,114.8c1.5.1,2.8-1.2,2.8-2.8s-1.3-2.9-2.9-2.9c-1.5,0-2.8,1.2-2.8,2.8s1.2,2.9,2.9,2.9Z"/>
      <path class="cls-1" d="m87.3,111.9c0,1.6,1.2,2.9,2.9,2.8,1.5.1,2.8-1.2,2.8-2.8s-1.4-2.9-2.9-2.9-2.8,1.3-2.8,2.9h0Z"/>
      <path class="cls-1" d="m68.2,114.7c1.5.1,2.8-1.2,2.8-2.8,0-1.5-1.2-2.8-2.8-2.8-1.5-.1-2.8,1.2-2.8,2.8s1.3,2.9,2.8,2.8Z"/>
      <path class="cls-1" d="m46.5,114.8c1.6,0,2.9-1.3,2.9-2.9s-1.3-2.9-2.9-2.9-2.9,1.3-2.9,2.9,1.3,2.9,2.9,2.9Z"/>
      <path class="cls-1" d="m21.8,111.9c0,1.6,1.3,2.9,2.9,2.8,1.5,0,2.8-1.2,2.8-2.8s-1.2-2.9-2.8-2.9-2.9,1.3-2.9,2.9h0Z"/>
      <path class="cls-1" d="m2.8,114.7c1.5.1,2.8-1.2,2.8-2.8,0-1.5-1.2-2.8-2.8-2.8C1.3,109,0,110.3,0,111.9s1.3,2.9,2.8,2.8Z"/>
    </g>
    <g>
      <path class="cls-1" d="m220.9,92.9c1.6,0,2.9-1.3,2.9-2.9,0-1.5-1.2-2.8-2.8-2.8s-2.9,1.3-2.9,2.9,1.3,2.9,2.8,2.8Z"/>
      <path class="cls-1" d="m199.1,92.9c1.6,0,2.9-1.4,2.9-2.9s-1.2-2.8-2.8-2.8-2.9,1.3-2.9,2.9,1.3,2.9,2.8,2.8Z"/>
      <path class="cls-1" d="m174.5,90.1c0,1.6,1.3,2.9,2.9,2.8,1.5.1,2.8-1.2,2.8-2.8s-1.4-2.9-2.9-2.9-2.8,1.3-2.8,2.9h0Z"/>
      <path class="cls-1" d="m155.4,92.9c1.6,0,2.9-1.3,2.9-2.9.1-1.5-1.2-2.8-2.8-2.8-1.5,0-2.8,1.3-2.8,2.9s1.3,2.9,2.7,2.8Z"/>
      <path class="cls-1" d="m133.8,93c1.5.1,2.8-1.2,2.8-2.8s-1.3-2.9-2.9-2.9c-1.5,0-2.8,1.2-2.8,2.8s1.3,2.9,2.9,2.9Z"/>
      <path class="cls-1" d="m112,93c1.5.1,2.8-1.2,2.8-2.8s-1.3-2.9-2.9-2.9c-1.5,0-2.8,1.2-2.8,2.8s1.2,2.9,2.9,2.9Z"/>
      <path class="cls-1" d="m87.3,90.1c0,1.6,1.2,2.9,2.9,2.8,1.5.1,2.8-1.2,2.8-2.8s-1.4-2.9-2.9-2.9-2.8,1.3-2.8,2.9h0Z"/>
      <path class="cls-1" d="m68.3,93c1.5,0,2.8-1.2,2.8-2.8s-1.4-2.9-2.9-2.9-2.8,1.2-2.8,2.8,1.3,2.9,2.9,2.9Z"/>
      <path class="cls-1" d="m43.6,90.1c0,1.6,1.2,2.9,2.8,2.9s2.9-1.2,2.9-2.8-1.3-2.9-2.9-2.9c-1.5-.1-2.8,1.2-2.8,2.8h0Z"/>
      <path class="cls-1" d="m24.7,92.9c1.5,0,2.8-1.2,2.8-2.8s-1.2-2.9-2.8-2.9-2.9,1.3-2.9,2.9,1.3,2.9,2.9,2.8Z"/>
      <path class="cls-1" d="m2.8,92.9c1.6,0,2.9-1.4,2.9-2.9s-1.2-2.8-2.8-2.8S0,88.5,0,90.1s1.3,2.9,2.8,2.8Z"/>
    </g>
    <g>
      <path class="cls-1" d="m218.1,68.3c.1,1.6,1.3,2.9,2.9,2.8,1.6,0,2.9-1.4,2.9-2.9s-1.3-2.8-2.9-2.8-2.9,1.3-2.9,2.9h0Z"/>
      <path class="cls-1" d="m199.2,71.2c1.6,0,2.9-1.4,2.9-2.9,0-1.5-1.3-2.8-2.9-2.8s-2.9,1.2-2.9,2.8,1.3,2.9,2.9,2.9Z"/>
      <path class="cls-1" d="m174.5,68.3c0,1.6,1.3,2.9,2.8,2.9,1.6-.1,2.9-1.4,2.9-2.9,0-1.5-1.4-2.8-2.9-2.8s-2.8,1.2-2.8,2.8h0Z"/>
      <path class="cls-1" d="m152.7,68.3c0,1.6,1.3,2.9,2.8,2.9,1.6,0,2.9-1.4,2.9-2.9,0-1.5-1.3-2.8-2.9-2.8-1.5,0-2.8,1.2-2.8,2.8h0Z"/>
      <path class="cls-1" d="m130.9,68.3c0,1.6,1.3,2.9,2.8,2.8,1.5,0,2.8-1.3,2.8-2.8,0-1.5-1.2-2.8-2.8-2.8-1.5,0-2.8,1.2-2.8,2.8h0Z"/>
      <path class="cls-1" d="m109.1,68.3c0,1.6,1.2,2.9,2.8,2.8,1.5.1,2.8-1.3,2.8-2.8,0-1.5-1.2-2.8-2.8-2.8-1.5,0-2.8,1.2-2.8,2.8h0Z"/>
      <path class="cls-1" d="m90.1,71.2c1.6,0,2.9-1.3,2.9-2.9-.1-1.5-1.4-2.8-2.9-2.8s-2.8,1.2-2.8,2.8,1.2,2.9,2.8,2.9Z"/>
      <path class="cls-1" d="m68.3,71.2c1.6-.1,2.9-1.4,2.9-2.9s-1.3-2.8-2.9-2.8-2.9,1.2-2.9,2.8,1.3,2.9,2.9,2.9Z"/>
      <path class="cls-1" d="m46.5,71.2c1.6,0,2.9-1.4,2.9-2.9s-1.3-2.8-2.9-2.8-2.9,1.2-2.9,2.8,1.3,2.9,2.9,2.9Z"/>
      <path class="cls-1" d="m24.7,71.2c1.5,0,2.8-1.4,2.8-2.9s-1.2-2.8-2.8-2.8-2.9,1.2-2.9,2.8,1.4,2.9,2.9,2.9Z"/>
      <path class="cls-1" d="m0,68.3c0,1.6,1.3,2.9,2.9,2.8,1.6,0,2.9-1.4,2.9-2.9s-1.3-2.8-2.9-2.8S0,66.7,0,68.3H0Z"/>
    </g>
    <g>
      <path class="cls-1" d="m221,49.4c1.6,0,2.9-1.3,2.9-2.9s-1.3-2.9-2.9-2.9c-1.6.1-2.9,1.3-2.9,2.9s1.3,2.9,2.9,2.9Z"/>
      <path class="cls-1" d="m199.2,49.4c1.6-.1,2.9-1.3,2.9-2.9s-1.3-2.9-2.9-2.9c-1.6.1-2.9,1.3-2.9,2.9s1.3,2.9,2.9,2.9Z"/>
      <path class="cls-1" d="m177.3,49.4c1.6-.1,2.9-1.3,2.9-2.9s-1.4-2.9-2.9-2.9-2.8,1.3-2.8,2.9,1.3,2.9,2.8,2.9Z"/>
      <path class="cls-1" d="m155.5,49.4c1.6-.1,2.9-1.3,2.9-2.9s-1.3-2.9-2.9-2.9c-1.5.1-2.8,1.3-2.8,2.9s1.3,2.9,2.8,2.9Z"/>
      <path class="cls-1" d="m133.7,49.3c1.5.1,2.8-1.2,2.8-2.8.1-1.5-1.2-2.8-2.8-2.8-1.5-.1-2.8,1.2-2.8,2.8s1.2,2.8,2.8,2.8Z"/>
      <path class="cls-1" d="m111.9,49.4c1.6,0,2.9-1.3,2.9-2.9-.1-1.6-1.3-2.9-2.9-2.9-1.5,0-2.8,1.3-2.8,2.9s1.2,2.9,2.8,2.9Z"/>
      <path class="cls-1" d="m90.1,49.4c1.6,0,2.9-1.3,2.9-2.9-.1-1.6-1.4-2.9-2.9-2.9s-2.8,1.3-2.8,2.9,1.2,2.9,2.8,2.9Z"/>
      <path class="cls-1" d="m68.2,49.3c1.5.1,2.8-1.2,2.8-2.8.1-1.5-1.2-2.8-2.8-2.8-1.5-.1-2.8,1.2-2.8,2.8s1.3,2.8,2.8,2.8Z"/>
      <path class="cls-1" d="m46.4,49.3c1.6.1,2.9-1.3,2.9-2.8s-1.3-2.8-2.9-2.8c-1.5,0-2.8,1.2-2.8,2.8s1.3,2.8,2.8,2.8Z"/>
      <path class="cls-1" d="m24.7,49.3c1.5.1,2.8-1.2,2.8-2.8s-1.2-2.9-2.8-2.9-2.9,1.3-2.9,2.9,1.3,2.8,2.9,2.8Z"/>
      <path class="cls-1" d="m2.8,49.3c1.5,0,2.8-1.2,2.8-2.8.1-1.5-1.2-2.8-2.8-2.8C1.3,43.6,0,44.9,0,46.5s1.3,2.8,2.8,2.8Z"/>
    </g>
    <g>
      <path class="cls-1" d="m221,27.6c1.5,0,2.8-1.2,2.8-2.8s-1.3-2.9-2.9-2.9c-1.5,0-2.8,1.2-2.8,2.8s1.3,2.8,2.9,2.9Z"/>
      <path class="cls-1" d="m199.2,27.5c1.6,0,2.9-1.2,2.9-2.8s-1.3-2.9-2.9-2.9c-1.6.1-2.9,1.3-2.9,2.9s1.3,2.8,2.9,2.8Z"/>
      <path class="cls-1" d="m174.5,24.7c0,1.6,1.3,2.9,2.8,2.9,1.6,0,2.9-1.2,2.9-2.8-.1-1.6-1.4-2.9-2.9-2.9s-2.8,1.2-2.8,2.8h0Z"/>
      <path class="cls-1" d="m155.5,27.5c1.6,0,2.9-1.2,2.9-2.8s-1.3-2.9-2.9-2.9c-1.5,0-2.8,1.3-2.8,2.9s1.3,2.8,2.8,2.8Z"/>
      <path class="cls-1" d="m133.6,27.4c1.6,0,2.9-1.2,2.9-2.8s-1.2-2.8-2.8-2.8c-1.5,0-2.8,1.3-2.8,2.9s1.2,2.8,2.7,2.7Z"/>
      <path class="cls-1" d="m111.9,27.5c1.6,0,2.9-1.2,2.9-2.8-.1-1.6-1.3-2.9-2.9-2.9-1.5,0-2.8,1.3-2.8,2.9s1.2,2.8,2.8,2.8Z"/>
      <path class="cls-1" d="m90.1,27.5c1.6,0,2.9-1.2,2.9-2.8-.1-1.6-1.4-2.9-2.9-2.9s-2.8,1.3-2.8,2.9c-.1,1.6,1.2,2.8,2.8,2.8Z"/>
      <path class="cls-1" d="m68.3,27.6c1.5,0,2.8-1.2,2.8-2.8s-1.4-2.9-2.9-2.9-2.8,1.2-2.8,2.8,1.3,2.8,2.9,2.9Z"/>
      <path class="cls-1" d="m43.6,24.7c0,1.6,1.3,2.8,2.9,2.8,1.6,0,2.9-1.2,2.9-2.8s-1.3-2.9-2.9-2.9-2.9,1.3-2.9,2.9h0Z"/>
      <path class="cls-1" d="m24.7,27.5c1.5,0,2.8-1.2,2.8-2.8s-1.2-2.9-2.8-2.9-2.9,1.3-2.9,2.9,1.4,2.8,2.9,2.8Z"/>
      <path class="cls-1" d="m2.9,27.5c1.6,0,2.9-1.2,2.9-2.8s-1.3-2.9-2.9-2.9C1.3,21.9,0,23.1,0,24.7s1.3,2.8,2.9,2.8Z"/>
    </g>
    <g>
      <path class="cls-1" d="m218.1,2.9c0,1.6,1.3,2.8,2.8,2.9,1.6,0,2.9-1.2,2.9-2.8s-1.3-2.9-2.9-2.9c-1.5,0-2.8,1.2-2.8,2.8h0Z"/>
      <path class="cls-1" d="m196.3,2.9c0,1.6,1.3,2.8,2.8,2.9,1.6,0,2.9-1.2,2.9-2.8s-1.3-2.9-2.9-2.9C197.6,0,196.3,1.3,196.3,2.9h0Z"/>
      <path class="cls-1" d="m174.5,2.9c0,1.5,1.3,2.8,2.8,2.8s2.8-1.2,2.8-2.8c.1-1.5-1.3-2.8-2.8-2.8s-2.8,1.2-2.8,2.8h0Z"/>
      <path class="cls-1" d="m152.7,2.9c0,1.5,1.3,2.8,2.8,2.8,1.6,0,2.9-1.2,2.9-2.8S157.1,0,155.5,0c-1.5,0-2.8,1.3-2.8,2.9h0Z"/>
      <path class="cls-1" d="m130.9,2.9c0,1.5,1.3,2.8,2.8,2.7,1.5,0,2.8-1.2,2.8-2.8S135.3,0,133.7,0c-1.5,0-2.8,1.3-2.8,2.9h0Z"/>
      <path class="cls-1" d="m109.1,2.9c0,1.5,1.3,2.7,2.8,2.7s2.8-1.3,2.8-2.8C114.7,1.3,113.5,0,111.9,0c-1.5,0-2.8,1.3-2.8,2.9h0Z"/>
      <path class="cls-1" d="m90.1,5.7c1.5,0,2.8-1.2,2.8-2.8.1-1.5-1.2-2.8-2.8-2.8-1.5,0-2.8,1.2-2.8,2.8,0,1.5,1.3,2.8,2.8,2.8Z"/>
      <path class="cls-1" d="m68.3,5.7c1.6,0,2.9-1.2,2.9-2.8C71.1,1.3,69.9,0,68.3,0c-1.6.1-2.9,1.3-2.9,2.9s1.3,2.8,2.9,2.8Z"/>
      <path class="cls-1" d="m46.5,5.7c1.6,0,2.9-1.2,2.9-2.8S48.1,0,46.5,0s-2.9,1.3-2.9,2.9,1.3,2.8,2.9,2.8Z"/>
      <path class="cls-1" d="m24.7,5.7c1.5,0,2.8-1.3,2.8-2.8S26.3.1,24.7.1s-2.9,1.2-2.9,2.8,1.3,2.8,2.9,2.8Z"/>
      <path class="cls-1" d="m0,2.9c0,1.6,1.3,2.8,2.8,2.9,1.6,0,2.9-1.2,2.9-2.8S4.4.1,2.8.1C1.3.1,0,1.3,0,2.9H0Z"/>
    </g>
  </g>
</svg>