<?xml version="1.0" encoding="UTF-8"?>
<svg id="Capa_1" data-name="Capa 1" xmlns="http://www.w3.org/2000/svg" viewBox="0 0 559.91 446.1">
  <defs>
    <style>
      .cls-1, .cls-2 {
        fill: #fff;
      }

      .cls-3 {
        stroke-width: 8px;
      }

      .cls-3, .cls-4, .cls-5, .cls-6, .cls-2 {
        opacity: .4;
      }

      .cls-3, .cls-5, .cls-6, .cls-2 {
        isolation: isolate;
      }

      .cls-3, .cls-5, .cls-6, .cls-7 {
        fill: none;
        stroke: #fff;
        stroke-miterlimit: 10;
      }

      .cls-5 {
        stroke-linecap: round;
        stroke-width: 7px;
      }

      .cls-6 {
        stroke-width: 14px;
      }

      .cls-7 {
        stroke-width: 4px;
      }
    </style>
  </defs>
  <g class="cls-4">
    <line class="cls-7" x1="356.9" y1="132.6" x2="323.3" y2="166.2"/>
    <line class="cls-7" x1="373.7" y1="132.6" x2="340.1" y2="166.2"/>
    <line class="cls-7" x1="390.5" y1="132.6" x2="356.9" y2="166.2"/>
    <line class="cls-7" x1="407.3" y1="132.6" x2="373.7" y2="166.2"/>
    <line class="cls-7" x1="424.1" y1="132.6" x2="390.5" y2="166.2"/>
    <line class="cls-7" x1="440.9" y1="132.6" x2="407.3" y2="166.2"/>
    <line class="cls-7" x1="457.7" y1="132.6" x2="424.1" y2="166.2"/>
    <line class="cls-7" x1="474.5" y1="132.6" x2="440.9" y2="166.2"/>
    <line class="cls-7" x1="491.3" y1="132.6" x2="457.7" y2="166.2"/>
    <line class="cls-7" x1="508.1" y1="132.6" x2="474.5" y2="166.2"/>
    <line class="cls-7" x1="524.9" y1="132.6" x2="491.3" y2="166.2"/>
    <line class="cls-7" x1="541.7" y1="132.6" x2="508.1" y2="166.2"/>
    <line class="cls-7" x1="558.5" y1="132.6" x2="524.9" y2="166.2"/>
  </g>
  <circle class="cls-6" cx="82.9" cy="253.1" r="75.9"/>
  <rect class="cls-5" x="322.4" y="3.5" width="79.3" height="79.3"/>
  <rect class="cls-2" x="257.8" y="166.9" width="41.9" height="41.9"/>
  <path class="cls-3" d="m209.3,144.1c-10.5,10.5-27.5,10.4-38,0s-10.5-27.4,0-37.9c10.5-10.5,27.5-10.5,38,0,10.5,10.5,10.5,27.4,0,37.9Z"/>
  <g class="cls-4">
    <g>
      <path class="cls-1" d="m421.7,446.1c1.5,0,2.8-1.2,2.8-2.8s-1.3-2.9-2.9-2.9c-1.5-.1-2.8,1.2-2.8,2.8s1.3,2.9,2.9,2.9Z"/>
      <path class="cls-1" d="m399.8,446c1.6,0,2.9-1.3,2.9-2.9.1-1.5-1.2-2.8-2.8-2.8s-2.9,1.3-2.9,2.9,1.3,2.9,2.8,2.8Z"/>
      <path class="cls-1" d="m375.2,443.2c0,1.6,1.3,2.9,2.8,2.8,1.5.1,2.8-1.2,2.8-2.8s-1.2-2.8-2.8-2.8c-1.5-.1-2.8,1.2-2.8,2.8h0Z"/>
      <path class="cls-1" d="m356.2,446.1c1.6-.1,2.9-1.3,2.9-2.9s-1.3-2.9-2.9-2.9c-1.5,0-2.8,1.3-2.8,2.9s1.3,2.9,2.8,2.9Z"/>
      <path class="cls-1" d="m334.4,446.1c1.6,0,2.9-1.3,2.9-2.9-.1-1.6-1.3-2.9-2.9-2.9-1.5,0-2.8,1.3-2.8,2.9s1.3,2.9,2.8,2.9Z"/>
      <path class="cls-1" d="m312.6,446c1.5.1,2.8-1.2,2.8-2.8s-1.2-2.8-2.8-2.8c-1.5-.1-2.8,1.2-2.8,2.8s1.2,2.9,2.8,2.8Z"/>
      <path class="cls-1" d="m288,443.2c0,1.6,1.2,2.8,2.8,2.7,1.5.1,2.8-1.2,2.8-2.8s-1.3-2.8-2.8-2.8-2.8,1.3-2.8,2.9h0Z"/>
      <path class="cls-1" d="m269,446.1c1.6,0,2.9-1.3,2.9-2.9-.1-1.6-1.3-2.9-2.9-2.9-1.6.1-2.9,1.3-2.9,2.9s1.3,2.9,2.9,2.9Z"/>
      <path class="cls-1" d="m244.3,443.2c0,1.6,1.3,2.8,2.9,2.8s2.9-1.2,2.9-2.8-1.3-2.9-2.9-2.9c-1.6.1-2.9,1.3-2.9,2.9h0Z"/>
      <path class="cls-1" d="m225.4,446.1c1.5-.1,2.8-1.3,2.8-2.9s-1.2-2.9-2.8-2.9c-1.6.1-2.9,1.3-2.9,2.9s1.3,2.9,2.9,2.9Z"/>
      <path class="cls-1" d="m203.6,446.1c1.6,0,2.9-1.3,2.9-2.9-.1-1.6-1.3-2.9-2.9-2.9-1.6.1-2.9,1.3-2.9,2.9s1.3,2.9,2.9,2.9Z"/>
    </g>
    <g>
      <path class="cls-1" d="m421.7,424.3c1.5.1,2.8-1.2,2.8-2.8s-1.3-2.9-2.9-2.9c-1.5,0-2.8,1.2-2.8,2.8s1.3,2.8,2.9,2.9Z"/>
      <path class="cls-1" d="m399.9,424.3c1.6,0,2.9-1.3,2.9-2.9s-1.3-2.9-2.9-2.9c-1.6.1-2.9,1.3-2.9,2.9s1.3,2.9,2.9,2.9Z"/>
      <path class="cls-1" d="m375.2,421.4c0,1.6,1.3,2.8,2.9,2.8,1.5,0,2.8-1.2,2.8-2.8s-1.4-2.9-2.9-2.9-2.8,1.3-2.8,2.9h0Z"/>
      <path class="cls-1" d="m356.3,424.3c1.5,0,2.8-1.2,2.8-2.8s-1.3-2.9-2.9-2.9c-1.5-.1-2.8,1.2-2.8,2.8s1.4,2.9,2.9,2.9Z"/>
      <path class="cls-1" d="m334.3,424.2c1.6,0,2.9-1.3,2.9-2.9s-1.2-2.8-2.8-2.8c-1.5,0-2.8,1.3-2.8,2.9s1.2,2.8,2.7,2.8Z"/>
      <path class="cls-1" d="m312.5,424.2c1.6,0,2.9-1.3,2.9-2.9.1-1.5-1.2-2.8-2.8-2.8-1.5,0-2.8,1.3-2.8,2.9s1.2,2.8,2.7,2.8Z"/>
      <path class="cls-1" d="m288,421.4c0,1.6,1.2,2.8,2.9,2.8,1.5.1,2.8-1.2,2.8-2.8s-1.4-2.9-2.9-2.9-2.8,1.3-2.8,2.9h0Z"/>
      <path class="cls-1" d="m269,424.3c1.6,0,2.9-1.3,2.9-2.9s-1.3-2.9-2.9-2.9c-1.6.1-2.9,1.3-2.9,2.9.1,1.6,1.3,2.8,2.9,2.9Z"/>
      <path class="cls-1" d="m244.3,421.4c0,1.6,1.3,2.8,2.9,2.8s2.9-1.2,2.9-2.8-1.3-2.9-2.9-2.9-2.9,1.3-2.9,2.9h0Z"/>
      <path class="cls-1" d="m225.4,424.3c1.5,0,2.8-1.3,2.8-2.9s-1.2-2.9-2.8-2.9-2.9,1.3-2.9,2.9,1.4,2.9,2.9,2.9Z"/>
      <path class="cls-1" d="m203.6,424.3c1.6,0,2.9-1.3,2.9-2.9s-1.3-2.9-2.9-2.9c-1.6.1-2.9,1.3-2.9,2.9s1.3,2.8,2.9,2.9Z"/>
    </g>
    <g>
      <path class="cls-1" d="m418.8,399.6c0,1.6,1.3,2.8,2.8,2.9,1.6,0,2.9-1.3,2.9-2.9s-1.3-2.9-2.9-2.9c-1.5,0-2.8,1.3-2.8,2.9h0Z"/>
      <path class="cls-1" d="m397,399.6c0,1.6,1.3,2.8,2.8,2.9,1.6,0,2.9-1.3,2.9-2.9s-1.3-2.9-2.9-2.9c-1.5,0-2.8,1.3-2.8,2.9h0Z"/>
      <path class="cls-1" d="m378,402.4c1.5.1,2.8-1.2,2.8-2.8.1-1.6-1.3-2.9-2.8-2.9s-2.8,1.3-2.8,2.9,1.3,2.8,2.8,2.8Z"/>
      <path class="cls-1" d="m356.2,402.4c1.5,0,2.8-1.2,2.8-2.8.1-1.6-1.2-2.9-2.8-2.9-1.5,0-2.8,1.3-2.8,2.9s1.3,2.8,2.8,2.8Z"/>
      <path class="cls-1" d="m331.6,399.6c0,1.5,1.3,2.8,2.8,2.8s2.8-1.2,2.8-2.8c.1-1.6-1.2-2.9-2.8-2.9-1.5,0-2.8,1.3-2.8,2.9h0Z"/>
      <path class="cls-1" d="m309.8,399.6c0,1.6,1.2,2.8,2.7,2.9,1.6,0,2.9-1.3,2.9-2.9.1-1.6-1.2-2.9-2.8-2.9-1.5,0-2.8,1.3-2.8,2.9h0Z"/>
      <path class="cls-1" d="m290.8,402.4c1.5.1,2.8-1.2,2.8-2.8.1-1.6-1.2-2.9-2.8-2.9-1.5,0-2.8,1.3-2.8,2.9s1.2,2.8,2.8,2.8Z"/>
      <path class="cls-1" d="m266.1,399.6c0,1.5,1.4,2.8,2.9,2.8s2.8-1.2,2.8-2.8-1.4-2.9-2.9-2.9-2.8,1.3-2.8,2.9h0Z"/>
      <path class="cls-1" d="m244.3,399.6c0,1.5,1.3,2.8,2.9,2.8s2.9-1.2,2.9-2.8-1.3-2.9-2.9-2.9-2.9,1.3-2.9,2.9h0Z"/>
      <path class="cls-1" d="m225.4,402.4c1.5,0,2.8-1.2,2.8-2.8s-1.2-2.9-2.8-2.9-2.9,1.3-2.9,2.9,1.4,2.8,2.9,2.8Z"/>
      <path class="cls-1" d="m200.7,399.6c0,1.6,1.3,2.8,2.8,2.9,1.6,0,2.9-1.3,2.9-2.9s-1.4-2.9-2.9-2.9-2.8,1.3-2.8,2.9h0Z"/>
    </g>
    <g>
      <path class="cls-1" d="m421.7,380.7c1.6-.1,2.9-1.3,2.9-2.9-.1-1.6-1.3-2.9-2.9-2.9s-2.9,1.3-2.9,2.9,1.3,2.8,2.9,2.9Z"/>
      <path class="cls-1" d="m399.8,380.6c1.5.1,2.8-1.2,2.8-2.8.1-1.5-1.2-2.8-2.8-2.8-1.5-.1-2.8,1.2-2.8,2.8s1.3,2.8,2.8,2.8Z"/>
      <path class="cls-1" d="m378,380.6c1.5.1,2.8-1.2,2.8-2.8.1-1.5-1.2-2.8-2.8-2.8-1.5-.1-2.8,1.2-2.8,2.8s1.3,2.8,2.8,2.8Z"/>
      <path class="cls-1" d="m356.2,380.6c1.5.1,2.8-1.2,2.8-2.8.1-1.5-1.2-2.8-2.8-2.8-1.5-.1-2.8,1.2-2.8,2.8s1.3,2.8,2.8,2.8Z"/>
      <path class="cls-1" d="m334.5,380.7c1.5.1,2.8-1.2,2.8-2.8s-1.3-2.9-2.9-2.9c-1.5,0-2.8,1.2-2.8,2.8s1.3,2.8,2.9,2.9Z"/>
      <path class="cls-1" d="m312.7,380.7c1.5,0,2.8-1.2,2.8-2.8-.1-1.6-1.3-2.9-2.9-2.9-1.5-.1-2.8,1.2-2.8,2.8s1.4,2.9,2.9,2.9Z"/>
      <path class="cls-1" d="m290.8,380.6c1.6,0,2.9-1.3,2.9-2.9.1-1.5-1.2-2.8-2.8-2.8-1.6.1-2.9,1.3-2.9,2.9s1.2,2.8,2.8,2.8Z"/>
      <path class="cls-1" d="m269,380.7c1.6-.1,2.9-1.3,2.9-2.9s-1.3-2.9-2.9-2.9c-1.6.1-2.9,1.3-2.9,2.9.1,1.6,1.3,2.8,2.9,2.9Z"/>
      <path class="cls-1" d="m244.3,377.8c0,1.6,1.2,2.9,2.8,2.9s2.9-1.2,2.9-2.8-1.3-2.9-2.9-2.9c-1.5,0-2.8,1.2-2.8,2.8h0Z"/>
      <path class="cls-1" d="m225.4,380.6c1.5,0,2.8-1.2,2.8-2.8s-1.2-2.9-2.8-2.9-2.9,1.3-2.9,2.9,1.4,2.8,2.9,2.8Z"/>
      <path class="cls-1" d="m203.6,380.7c1.6,0,2.9-1.3,2.9-2.9-.1-1.6-1.3-2.9-2.9-2.9s-2.9,1.3-2.9,2.9,1.3,2.8,2.9,2.9Z"/>
    </g>
    <g>
      <path class="cls-1" d="m421.6,358.8c1.6,0,2.9-1.3,2.9-2.9,0-1.5-1.2-2.8-2.8-2.8s-2.9,1.3-2.9,2.9,1.3,2.8,2.8,2.8Z"/>
      <path class="cls-1" d="m399.8,358.8c1.6,0,2.9-1.3,2.9-2.9,0-1.5-1.2-2.8-2.8-2.8s-2.9,1.3-2.9,2.9,1.3,2.8,2.8,2.8Z"/>
      <path class="cls-1" d="m375.2,356c0,1.5,1.3,2.8,2.9,2.8,1.5.1,2.8-1.2,2.8-2.8s-1.4-2.9-2.9-2.9-2.8,1.3-2.8,2.9h0Z"/>
      <path class="cls-1" d="m356.1,358.8c1.6,0,2.9-1.3,2.9-2.9,0-1.5-1.2-2.8-2.8-2.8-1.5,0-2.8,1.3-2.8,2.9s1.3,2.8,2.7,2.8Z"/>
      <path class="cls-1" d="m334.4,358.9c1.6,0,2.9-1.3,2.9-2.9s-1.3-2.9-2.9-2.9c-1.5,0-2.8,1.3-2.8,2.9s1.2,2.9,2.8,2.9Z"/>
      <path class="cls-1" d="m312.6,358.9c1.6,0,2.9-1.3,2.9-2.9s-1.3-2.9-2.9-2.9c-1.5.1-2.8,1.3-2.8,2.9s1.2,2.8,2.8,2.9Z"/>
      <path class="cls-1" d="m288,356c-.1,1.5,1.2,2.8,2.7,2.9,1.6,0,2.9-1.3,2.9-2.9.1-1.5-1.2-2.8-2.8-2.8-1.5-.1-2.8,1.2-2.8,2.8h0Z"/>
      <path class="cls-1" d="m269,358.9c1.6-.1,2.9-1.3,2.9-2.9s-1.3-2.9-2.9-2.9-2.9,1.3-2.9,2.9c.1,1.5,1.3,2.8,2.9,2.9Z"/>
      <path class="cls-1" d="m244.3,356c0,1.5,1.3,2.8,2.9,2.8s2.9-1.3,2.9-2.9-1.3-2.8-2.9-2.8-2.9,1.3-2.9,2.9h0Z"/>
      <path class="cls-1" d="m222.5,356c0,1.5,1.3,2.8,2.9,2.8,1.5,0,2.8-1.3,2.8-2.8s-1.2-2.8-2.8-2.8c-1.6-.1-2.9,1.2-2.9,2.8h0Z"/>
      <path class="cls-1" d="m203.6,358.9c1.6-.1,2.9-1.3,2.9-2.9s-1.3-2.9-2.9-2.9-2.9,1.3-2.9,2.9,1.3,2.8,2.9,2.9Z"/>
    </g>
    <g>
      <path class="cls-1" d="m421.6,336.9c1.6,0,2.9-1.4,2.9-2.9s-1.2-2.8-2.8-2.8-2.9,1.3-2.9,2.9,1.3,2.9,2.8,2.8Z"/>
      <path class="cls-1" d="m399.9,337c1.6,0,2.9-1.3,2.9-2.9s-1.3-2.9-2.9-2.9-2.9,1.3-2.9,2.9,1.3,2.9,2.9,2.9Z"/>
      <path class="cls-1" d="m375.2,334.1c0,1.6,1.3,2.9,2.8,2.9,1.6,0,2.9-1.3,2.9-2.9-.1-1.6-1.4-2.9-2.9-2.9s-2.8,1.3-2.8,2.9h0Z"/>
      <path class="cls-1" d="m356.2,337c1.6,0,2.9-1.3,2.9-2.9-.1-1.6-1.3-2.9-2.9-2.9-1.5.1-2.8,1.3-2.8,2.9s1.3,2.9,2.8,2.9Z"/>
      <path class="cls-1" d="m334.5,337c1.5.1,2.8-1.2,2.8-2.8s-1.3-2.9-2.9-2.9c-1.5,0-2.8,1.2-2.8,2.8s1.3,2.9,2.9,2.9Z"/>
      <path class="cls-1" d="m312.7,337c1.5.1,2.8-1.2,2.8-2.8s-1.3-2.9-2.9-2.9c-1.5,0-2.8,1.2-2.8,2.8s1.2,2.9,2.9,2.9Z"/>
      <path class="cls-1" d="m288,334.1c0,1.6,1.2,2.9,2.9,2.8,1.5.1,2.8-1.2,2.8-2.8s-1.4-2.9-2.9-2.9-2.8,1.3-2.8,2.9h0Z"/>
      <path class="cls-1" d="m268.9,336.9c1.5.1,2.8-1.2,2.8-2.8,0-1.5-1.2-2.8-2.8-2.8-1.5-.1-2.8,1.2-2.8,2.8s1.3,2.9,2.8,2.8Z"/>
      <path class="cls-1" d="m247.2,337c1.6,0,2.9-1.3,2.9-2.9s-1.3-2.9-2.9-2.9-2.9,1.3-2.9,2.9,1.3,2.9,2.9,2.9Z"/>
      <path class="cls-1" d="m222.5,334.1c0,1.6,1.3,2.9,2.9,2.8,1.5,0,2.8-1.2,2.8-2.8s-1.2-2.9-2.8-2.9-2.9,1.3-2.9,2.9h0Z"/>
      <path class="cls-1" d="m203.5,336.9c1.5.1,2.8-1.2,2.8-2.8,0-1.5-1.2-2.8-2.8-2.8-1.5-.1-2.8,1.2-2.8,2.8s1.3,2.9,2.8,2.8Z"/>
    </g>
    <g>
      <path class="cls-1" d="m421.6,315.1c1.6,0,2.9-1.3,2.9-2.9,0-1.5-1.2-2.8-2.8-2.8s-2.9,1.3-2.9,2.9,1.3,2.9,2.8,2.8Z"/>
      <path class="cls-1" d="m399.8,315.1c1.6,0,2.9-1.4,2.9-2.9s-1.2-2.8-2.8-2.8-2.9,1.3-2.9,2.9,1.3,2.9,2.8,2.8Z"/>
      <path class="cls-1" d="m375.2,312.3c0,1.6,1.3,2.9,2.9,2.8,1.5.1,2.8-1.2,2.8-2.8s-1.4-2.9-2.9-2.9-2.8,1.3-2.8,2.9h0Z"/>
      <path class="cls-1" d="m356.1,315.1c1.6,0,2.9-1.3,2.9-2.9.1-1.5-1.2-2.8-2.8-2.8-1.5,0-2.8,1.3-2.8,2.9s1.3,2.9,2.7,2.8Z"/>
      <path class="cls-1" d="m334.5,315.2c1.5.1,2.8-1.2,2.8-2.8s-1.3-2.9-2.9-2.9c-1.5,0-2.8,1.2-2.8,2.8s1.3,2.9,2.9,2.9Z"/>
      <path class="cls-1" d="m312.7,315.2c1.5.1,2.8-1.2,2.8-2.8s-1.3-2.9-2.9-2.9c-1.5,0-2.8,1.2-2.8,2.8s1.2,2.9,2.9,2.9Z"/>
      <path class="cls-1" d="m288,312.3c0,1.6,1.2,2.9,2.9,2.8,1.5.1,2.8-1.2,2.8-2.8s-1.4-2.9-2.9-2.9-2.8,1.3-2.8,2.9h0Z"/>
      <path class="cls-1" d="m269,315.2c1.5,0,2.8-1.2,2.8-2.8s-1.4-2.9-2.9-2.9-2.8,1.2-2.8,2.8,1.3,2.9,2.9,2.9Z"/>
      <path class="cls-1" d="m244.3,312.3c0,1.6,1.2,2.9,2.8,2.9s2.9-1.2,2.9-2.8-1.3-2.9-2.9-2.9c-1.5-.1-2.8,1.2-2.8,2.8h0Z"/>
      <path class="cls-1" d="m225.4,315.1c1.5,0,2.8-1.2,2.8-2.8s-1.2-2.9-2.8-2.9-2.9,1.3-2.9,2.9,1.3,2.9,2.9,2.8Z"/>
      <path class="cls-1" d="m203.5,315.1c1.6,0,2.9-1.4,2.9-2.9s-1.2-2.8-2.8-2.8-2.9,1.3-2.9,2.9,1.3,2.9,2.8,2.8Z"/>
    </g>
    <g>
      <path class="cls-1" d="m418.8,290.5c.1,1.6,1.3,2.9,2.9,2.8,1.6,0,2.9-1.4,2.9-2.9s-1.3-2.8-2.9-2.8-2.9,1.3-2.9,2.9h0Z"/>
      <path class="cls-1" d="m399.9,293.4c1.6,0,2.9-1.4,2.9-2.9,0-1.5-1.3-2.8-2.9-2.8s-2.9,1.2-2.9,2.8,1.3,2.9,2.9,2.9Z"/>
      <path class="cls-1" d="m375.2,290.5c0,1.6,1.3,2.9,2.8,2.9,1.6-.1,2.9-1.4,2.9-2.9,0-1.5-1.4-2.8-2.9-2.8s-2.8,1.2-2.8,2.8h0Z"/>
      <path class="cls-1" d="m353.4,290.5c0,1.6,1.3,2.9,2.8,2.9,1.6,0,2.9-1.4,2.9-2.9,0-1.5-1.3-2.8-2.9-2.8-1.5,0-2.8,1.2-2.8,2.8h0Z"/>
      <path class="cls-1" d="m331.6,290.5c0,1.6,1.3,2.9,2.8,2.8,1.5,0,2.8-1.3,2.8-2.8,0-1.5-1.2-2.8-2.8-2.8-1.5,0-2.8,1.2-2.8,2.8h0Z"/>
      <path class="cls-1" d="m309.8,290.5c0,1.6,1.2,2.9,2.8,2.8,1.5.1,2.8-1.3,2.8-2.8,0-1.5-1.2-2.8-2.8-2.8-1.5,0-2.8,1.2-2.8,2.8h0Z"/>
      <path class="cls-1" d="m290.8,293.4c1.6,0,2.9-1.3,2.9-2.9-.1-1.5-1.4-2.8-2.9-2.8s-2.8,1.2-2.8,2.8,1.2,2.9,2.8,2.9Z"/>
      <path class="cls-1" d="m269,293.4c1.6-.1,2.9-1.4,2.9-2.9s-1.3-2.8-2.9-2.8-2.9,1.2-2.9,2.8,1.3,2.9,2.9,2.9Z"/>
      <path class="cls-1" d="m247.2,293.4c1.6,0,2.9-1.4,2.9-2.9s-1.3-2.8-2.9-2.8-2.9,1.2-2.9,2.8,1.3,2.9,2.9,2.9Z"/>
      <path class="cls-1" d="m225.4,293.4c1.5,0,2.8-1.4,2.8-2.9s-1.2-2.8-2.8-2.8-2.9,1.2-2.9,2.8,1.4,2.9,2.9,2.9Z"/>
      <path class="cls-1" d="m200.7,290.5c0,1.6,1.3,2.9,2.9,2.8,1.6,0,2.9-1.4,2.9-2.9s-1.3-2.8-2.9-2.8-2.9,1.3-2.9,2.9h0Z"/>
    </g>
    <g>
      <path class="cls-1" d="m421.7,271.6c1.6,0,2.9-1.3,2.9-2.9s-1.3-2.9-2.9-2.9c-1.6.1-2.9,1.3-2.9,2.9s1.3,2.9,2.9,2.9Z"/>
      <path class="cls-1" d="m399.9,271.6c1.6-.1,2.9-1.3,2.9-2.9s-1.3-2.9-2.9-2.9c-1.6.1-2.9,1.3-2.9,2.9s1.3,2.9,2.9,2.9Z"/>
      <path class="cls-1" d="m378,271.6c1.6-.1,2.9-1.3,2.9-2.9s-1.4-2.9-2.9-2.9-2.8,1.3-2.8,2.9,1.3,2.9,2.8,2.9Z"/>
      <path class="cls-1" d="m356.2,271.6c1.6-.1,2.9-1.3,2.9-2.9s-1.3-2.9-2.9-2.9c-1.5.1-2.8,1.3-2.8,2.9s1.3,2.9,2.8,2.9Z"/>
      <path class="cls-1" d="m334.4,271.5c1.5.1,2.8-1.2,2.8-2.8.1-1.5-1.2-2.8-2.8-2.8-1.5-.1-2.8,1.2-2.8,2.8s1.2,2.8,2.8,2.8Z"/>
      <path class="cls-1" d="m312.6,271.6c1.6,0,2.9-1.3,2.9-2.9-.1-1.6-1.3-2.9-2.9-2.9-1.5,0-2.8,1.3-2.8,2.9s1.2,2.9,2.8,2.9Z"/>
      <path class="cls-1" d="m290.8,271.6c1.6,0,2.9-1.3,2.9-2.9-.1-1.6-1.4-2.9-2.9-2.9s-2.8,1.3-2.8,2.9,1.2,2.9,2.8,2.9Z"/>
      <path class="cls-1" d="m268.9,271.5c1.5.1,2.8-1.2,2.8-2.8.1-1.5-1.2-2.8-2.8-2.8-1.5-.1-2.8,1.2-2.8,2.8s1.3,2.8,2.8,2.8Z"/>
      <path class="cls-1" d="m247.1,271.5c1.6.1,2.9-1.3,2.9-2.8s-1.3-2.8-2.9-2.8c-1.5,0-2.8,1.2-2.8,2.8s1.3,2.8,2.8,2.8Z"/>
      <path class="cls-1" d="m225.4,271.5c1.5.1,2.8-1.2,2.8-2.8s-1.2-2.9-2.8-2.9-2.9,1.3-2.9,2.9,1.3,2.8,2.9,2.8Z"/>
      <path class="cls-1" d="m203.5,271.5c1.5,0,2.8-1.2,2.8-2.8.1-1.5-1.2-2.8-2.8-2.8-1.5-.1-2.8,1.2-2.8,2.8s1.3,2.8,2.8,2.8Z"/>
    </g>
    <g>
      <path class="cls-1" d="m421.7,249.8c1.5,0,2.8-1.2,2.8-2.8s-1.3-2.9-2.9-2.9c-1.5,0-2.8,1.2-2.8,2.8s1.3,2.8,2.9,2.9Z"/>
      <path class="cls-1" d="m399.9,249.7c1.6,0,2.9-1.2,2.9-2.8s-1.3-2.9-2.9-2.9c-1.6.1-2.9,1.3-2.9,2.9s1.3,2.8,2.9,2.8Z"/>
      <path class="cls-1" d="m375.2,246.9c0,1.6,1.3,2.9,2.8,2.9,1.6,0,2.9-1.2,2.9-2.8-.1-1.6-1.4-2.9-2.9-2.9s-2.8,1.2-2.8,2.8h0Z"/>
      <path class="cls-1" d="m356.2,249.7c1.6,0,2.9-1.2,2.9-2.8s-1.3-2.9-2.9-2.9c-1.5,0-2.8,1.3-2.8,2.9s1.3,2.8,2.8,2.8Z"/>
      <path class="cls-1" d="m334.3,249.6c1.6,0,2.9-1.2,2.9-2.8s-1.2-2.8-2.8-2.8c-1.5,0-2.8,1.3-2.8,2.9s1.2,2.8,2.7,2.7Z"/>
      <path class="cls-1" d="m312.6,249.7c1.6,0,2.9-1.2,2.9-2.8-.1-1.6-1.3-2.9-2.9-2.9-1.5,0-2.8,1.3-2.8,2.9s1.2,2.8,2.8,2.8Z"/>
      <path class="cls-1" d="m290.8,249.7c1.6,0,2.9-1.2,2.9-2.8-.1-1.6-1.4-2.9-2.9-2.9s-2.8,1.3-2.8,2.9c-.1,1.6,1.2,2.8,2.8,2.8Z"/>
      <path class="cls-1" d="m269,249.8c1.5,0,2.8-1.2,2.8-2.8s-1.4-2.9-2.9-2.9-2.8,1.2-2.8,2.8,1.3,2.8,2.9,2.9Z"/>
      <path class="cls-1" d="m244.3,246.9c0,1.6,1.3,2.8,2.9,2.8,1.6,0,2.9-1.2,2.9-2.8s-1.3-2.9-2.9-2.9-2.9,1.3-2.9,2.9h0Z"/>
      <path class="cls-1" d="m225.4,249.7c1.5,0,2.8-1.2,2.8-2.8s-1.2-2.9-2.8-2.9-2.9,1.3-2.9,2.9,1.4,2.8,2.9,2.8Z"/>
      <path class="cls-1" d="m203.6,249.7c1.6,0,2.9-1.2,2.9-2.8s-1.3-2.9-2.9-2.9c-1.6.1-2.9,1.3-2.9,2.9s1.3,2.8,2.9,2.8Z"/>
    </g>
    <g>
      <path class="cls-1" d="m418.8,225.1c0,1.6,1.3,2.8,2.8,2.9,1.6,0,2.9-1.2,2.9-2.8s-1.3-2.9-2.9-2.9c-1.5,0-2.8,1.2-2.8,2.8h0Z"/>
      <path class="cls-1" d="m397,225.1c0,1.6,1.3,2.8,2.8,2.9,1.6,0,2.9-1.2,2.9-2.8s-1.3-2.9-2.9-2.9c-1.5-.1-2.8,1.2-2.8,2.8h0Z"/>
      <path class="cls-1" d="m375.2,225.1c0,1.5,1.3,2.8,2.8,2.8s2.8-1.2,2.8-2.8c.1-1.5-1.3-2.8-2.8-2.8s-2.8,1.2-2.8,2.8h0Z"/>
      <path class="cls-1" d="m353.4,225.1c0,1.5,1.3,2.8,2.8,2.8,1.6,0,2.9-1.2,2.9-2.8s-1.3-2.9-2.9-2.9c-1.5,0-2.8,1.3-2.8,2.9h0Z"/>
      <path class="cls-1" d="m331.6,225.1c0,1.5,1.3,2.8,2.8,2.7,1.5,0,2.8-1.2,2.8-2.8s-1.2-2.8-2.8-2.8c-1.5,0-2.8,1.3-2.8,2.9h0Z"/>
      <path class="cls-1" d="m309.8,225.1c0,1.5,1.3,2.7,2.8,2.7s2.8-1.3,2.8-2.8c0-1.5-1.2-2.8-2.8-2.8-1.5,0-2.8,1.3-2.8,2.9h0Z"/>
      <path class="cls-1" d="m290.8,227.9c1.5,0,2.8-1.2,2.8-2.8.1-1.5-1.2-2.8-2.8-2.8-1.5,0-2.8,1.2-2.8,2.8,0,1.5,1.3,2.8,2.8,2.8Z"/>
      <path class="cls-1" d="m269,227.9c1.6,0,2.9-1.2,2.9-2.8-.1-1.6-1.3-2.9-2.9-2.9-1.6.1-2.9,1.3-2.9,2.9s1.3,2.8,2.9,2.8Z"/>
      <path class="cls-1" d="m247.2,227.9c1.6,0,2.9-1.2,2.9-2.8s-1.3-2.9-2.9-2.9-2.9,1.3-2.9,2.9,1.3,2.8,2.9,2.8Z"/>
      <path class="cls-1" d="m225.4,227.9c1.5,0,2.8-1.3,2.8-2.8s-1.2-2.8-2.8-2.8-2.9,1.2-2.9,2.8,1.3,2.8,2.9,2.8Z"/>
      <path class="cls-1" d="m200.7,225.1c0,1.6,1.3,2.8,2.8,2.9,1.6,0,2.9-1.2,2.9-2.8s-1.3-2.9-2.9-2.9c-1.5,0-2.8,1.2-2.8,2.8h0Z"/>
    </g>
  </g>
</svg>