<?xml version="1.0" encoding="UTF-8"?>
<svg id="Capa_1" data-name="Capa 1" xmlns="http://www.w3.org/2000/svg" viewBox="0 0 559.91 446.1">
  <defs>
    <style>
      .cls-1 {
        stroke-width: 8px;
      }

      .cls-1, .cls-2, .cls-3, .cls-4, .cls-5 {
        opacity: .4;
      }

      .cls-1, .cls-3, .cls-4, .cls-5 {
        isolation: isolate;
      }

      .cls-1, .cls-3, .cls-4, .cls-6 {
        fill: none;
        stroke: #fff;
        stroke-miterlimit: 10;
      }

      .cls-3 {
        stroke-linecap: round;
        stroke-width: 7px;
      }

      .cls-4 {
        stroke-width: 14px;
      }

      .cls-5 {
        fill: #fff;
      }

      .cls-6 {
        stroke-width: 4px;
      }
    </style>
  </defs>
  <g class="cls-2">
    <line class="cls-6" x1="236.61" y1="166.2" x2="203.01" y2="132.6"/>
    <line class="cls-6" x1="219.81" y1="166.2" x2="186.21" y2="132.6"/>
    <line class="cls-6" x1="203.01" y1="166.2" x2="169.41" y2="132.6"/>
    <line class="cls-6" x1="186.21" y1="166.2" x2="152.61" y2="132.6"/>
    <line class="cls-6" x1="169.41" y1="166.2" x2="135.81" y2="132.6"/>
    <line class="cls-6" x1="152.61" y1="166.2" x2="119.01" y2="132.6"/>
    <line class="cls-6" x1="135.81" y1="166.2" x2="102.21" y2="132.6"/>
    <line class="cls-6" x1="119.01" y1="166.2" x2="85.41" y2="132.6"/>
    <line class="cls-6" x1="102.21" y1="166.2" x2="68.61" y2="132.6"/>
    <line class="cls-6" x1="85.41" y1="166.2" x2="51.81" y2="132.6"/>
    <line class="cls-6" x1="68.61" y1="166.2" x2="35.01" y2="132.6"/>
    <line class="cls-6" x1="51.81" y1="166.2" x2="18.21" y2="132.6"/>
    <line class="cls-6" x1="35.01" y1="166.2" x2="1.41" y2="132.6"/>
  </g>
  <circle class="cls-4" cx="477.01" cy="253.1" r="75.9"/>
  <rect class="cls-3" x="158.21" y="3.5" width="79.3" height="79.3"/>
  <rect class="cls-5" x="260.21" y="166.9" width="41.9" height="41.9"/>
  <path class="cls-1" d="m350.61,106.2c10.5-10.5,27.5-10.5,38,0s10.5,27.5,0,37.9-27.5,10.5-38,0-10.5-27.4,0-37.9Z"/>
</svg>