<?xml version="1.0" encoding="UTF-8"?>
<svg id="Capa_1" data-name="Capa 1" xmlns="http://www.w3.org/2000/svg" viewBox="0 0 559.91 446.1">
  <defs>
    <style>
      .cls-1 {
        stroke-width: 8px;
      }

      .cls-1, .cls-2, .cls-3, .cls-4, .cls-5 {
        opacity: .4;
      }

      .cls-1, .cls-3, .cls-4, .cls-5 {
        isolation: isolate;
      }

      .cls-1, .cls-3, .cls-4, .cls-6 {
        fill: none;
        stroke: #fff;
        stroke-miterlimit: 10;
      }

      .cls-3 {
        stroke-linecap: round;
        stroke-width: 7px;
      }

      .cls-4 {
        stroke-width: 14px;
      }

      .cls-5 {
        fill: #fff;
      }

      .cls-6 {
        stroke-width: 4px;
      }
    </style>
  </defs>
  <g class="cls-2">
    <line class="cls-6" x1="356.9" y1="132.6" x2="323.3" y2="166.2"/>
    <line class="cls-6" x1="373.7" y1="132.6" x2="340.1" y2="166.2"/>
    <line class="cls-6" x1="390.5" y1="132.6" x2="356.9" y2="166.2"/>
    <line class="cls-6" x1="407.3" y1="132.6" x2="373.7" y2="166.2"/>
    <line class="cls-6" x1="424.1" y1="132.6" x2="390.5" y2="166.2"/>
    <line class="cls-6" x1="440.9" y1="132.6" x2="407.3" y2="166.2"/>
    <line class="cls-6" x1="457.7" y1="132.6" x2="424.1" y2="166.2"/>
    <line class="cls-6" x1="474.5" y1="132.6" x2="440.9" y2="166.2"/>
    <line class="cls-6" x1="491.3" y1="132.6" x2="457.7" y2="166.2"/>
    <line class="cls-6" x1="508.1" y1="132.6" x2="474.5" y2="166.2"/>
    <line class="cls-6" x1="524.9" y1="132.6" x2="491.3" y2="166.2"/>
    <line class="cls-6" x1="541.7" y1="132.6" x2="508.1" y2="166.2"/>
    <line class="cls-6" x1="558.5" y1="132.6" x2="524.9" y2="166.2"/>
  </g>
  <circle class="cls-4" cx="82.9" cy="253.1" r="75.9"/>
  <rect class="cls-3" x="322.4" y="3.5" width="79.3" height="79.3"/>
  <rect class="cls-5" x="257.8" y="166.9" width="41.9" height="41.9"/>
  <path class="cls-1" d="m209.3,144.1c-10.5,10.5-27.5,10.4-38,0s-10.5-27.4,0-37.9c10.5-10.5,27.5-10.5,38,0,10.5,10.5,10.5,27.4,0,37.9Z"/>
</svg>