<svg xmlns="http://www.w3.org/2000/svg" xml:space="preserve" id="Capa_1" x="0" y="0" version="1.1" viewBox="0 0 714.1 570.1"><style>.st0{opacity:.4}.st1{fill:none;stroke:#fff;stroke-width:4px;stroke-miterlimit:10}.st6{fill:#fff}</style><g class="st0"><path d="m313.7 228.2-33.6-33.6M296.9 228.2l-33.6-33.6M280.1 228.2l-33.6-33.6M263.3 228.2l-33.6-33.6M246.5 228.2l-33.6-33.6M229.7 228.2l-33.6-33.6M212.9 228.2l-33.6-33.6M196.1 228.2l-33.6-33.6M179.3 228.2l-33.6-33.6M162.5 228.2l-33.6-33.6M145.7 228.2l-33.6-33.6M128.9 228.2l-33.6-33.6M112.1 228.2l-33.6-33.6" class="st1"/></g><circle cx="554.1" cy="315.1" r="75.9" style="opacity:.4;fill:none;stroke:#fff;stroke-width:14px;stroke-miterlimit:10"/><path d="M235.3 65.5h79.3v79.3h-79.3z" style="opacity:.4;fill:none;stroke:#fff;stroke-width:7px;stroke-linecap:round;stroke-miterlimit:10"/><path d="M337.3 228.9h41.9v41.9h-41.9z" style="opacity:.4;fill:#fff"/><path d="M427.7 168.2c10.5-10.5 27.5-10.5 38 0s10.5 27.5 0 37.9-27.5 10.5-38 0-10.5-27.4 0-37.9z" style="opacity:.4;fill:none;stroke:#fff;stroke-width:8px;stroke-miterlimit:10"/><g class="st0"><path d="M218.2 505.2c0-1.6-1.3-2.9-2.8-2.8-1.6 0-2.9 1.3-2.9 2.9s1.3 2.8 2.8 2.8c1.6 0 2.9-1.3 2.9-2.9M240 505.2c0-1.6-1.3-2.9-2.9-2.9s-2.9 1.3-2.8 2.8c0 1.6 1.3 2.9 2.9 2.9 1.5.1 2.8-1.2 2.8-2.8M261.8 505.2c0-1.6-1.3-2.9-2.8-2.8-1.6 0-2.8 1.3-2.8 2.8 0 1.6 1.3 2.9 2.8 2.8 1.5.1 2.8-1.2 2.8-2.8M283.6 505.2c0-1.6-1.3-2.9-2.8-2.9-1.6 0-2.9 1.3-2.9 2.9s1.3 2.8 2.9 2.9c1.5 0 2.8-1.3 2.8-2.9M305.4 505.2c0-1.6-1.3-2.9-2.8-2.9-1.6 0-2.8 1.3-2.9 2.9 0 1.6 1.3 2.9 2.9 2.9 1.5 0 2.8-1.3 2.8-2.9M327.2 505.2c0-1.6-1.3-2.9-2.8-2.8-1.6 0-2.8 1.3-2.8 2.8 0 1.6 1.3 2.9 2.8 2.8 1.6.1 2.8-1.2 2.8-2.8M349 505.2c0-1.6-1.3-2.9-2.8-2.9s-2.8 1.3-2.8 2.8c0 1.6 1.3 2.9 2.8 2.8 1.6.1 2.8-1.1 2.8-2.7M370.9 505.2c0-1.6-1.3-2.8-2.9-2.9-1.6 0-2.8 1.3-2.9 2.9 0 1.6 1.3 2.9 2.9 2.9s2.9-1.3 2.9-2.9M392.7 505.2c0-1.6-1.3-2.8-2.9-2.9-1.6 0-2.9 1.3-2.9 2.9s1.3 2.8 2.9 2.8 2.9-1.2 2.9-2.8M414.5 505.2c0-1.6-1.3-2.8-2.9-2.9-1.6 0-2.8 1.3-2.8 2.9s1.3 2.8 2.8 2.9c1.6 0 2.9-1.3 2.9-2.9M436.3 505.2c0-1.6-1.3-2.8-2.9-2.9-1.6 0-2.8 1.3-2.9 2.9 0 1.6 1.3 2.9 2.9 2.9s2.9-1.3 2.9-2.9M218.2 483.4c0-1.6-1.3-2.8-2.8-2.8-1.6 0-2.9 1.3-2.9 2.9s1.3 2.9 2.8 2.8c1.6-.1 2.9-1.3 2.9-2.9M240 483.4c0-1.6-1.3-2.8-2.9-2.9-1.6 0-2.9 1.3-2.9 2.9s1.3 2.9 2.9 2.9 2.9-1.3 2.9-2.9M261.8 483.4c0-1.6-1.3-2.9-2.8-2.9s-2.9 1.3-2.9 2.9 1.3 2.8 2.8 2.8c1.6 0 2.9-1.2 2.9-2.8M283.6 483.4c0-1.6-1.3-2.9-2.8-2.8-1.6 0-2.9 1.3-2.9 2.9s1.3 2.8 2.8 2.8 2.9-1.3 2.9-2.9M305.4 483.4c0-1.6-1.3-2.9-2.8-2.9-1.6 0-2.8 1.3-2.8 2.8 0 1.6 1.3 2.9 2.9 2.9 1.5 0 2.7-1.2 2.7-2.8M327.2 483.4c0-1.6-1.3-2.9-2.8-2.9-1.6 0-2.9 1.3-2.8 2.8 0 1.6 1.3 2.9 2.9 2.9 1.5 0 2.7-1.2 2.7-2.8M349 483.4c0-1.6-1.3-2.9-2.8-2.9s-2.9 1.3-2.9 2.9 1.3 2.9 2.8 2.8c1.7 0 2.9-1.2 2.9-2.8M370.9 483.4c0-1.6-1.3-2.8-2.9-2.9-1.6 0-2.9 1.3-2.9 2.9s1.3 2.9 2.9 2.9c1.6-.1 2.8-1.3 2.9-2.9M392.7 483.4c0-1.6-1.3-2.9-2.9-2.9s-2.9 1.3-2.9 2.9 1.3 2.8 2.9 2.8 2.9-1.2 2.9-2.8M414.5 483.4c0-1.6-1.3-2.9-2.9-2.9s-2.8 1.3-2.8 2.9 1.3 2.9 2.8 2.9 2.9-1.3 2.9-2.9M436.3 483.4c0-1.6-1.3-2.8-2.9-2.9-1.6 0-2.9 1.3-2.9 2.9s1.3 2.9 2.9 2.9c1.6-.1 2.9-1.3 2.9-2.9M218.2 461.6c0-1.6-1.3-2.9-2.8-2.9-1.6 0-2.9 1.3-2.9 2.9s1.3 2.9 2.9 2.9c1.5-.1 2.8-1.3 2.8-2.9M240 461.6c0-1.6-1.3-2.9-2.8-2.9-1.6 0-2.9 1.3-2.9 2.9s1.3 2.9 2.9 2.9c1.5-.1 2.8-1.3 2.8-2.9M261.8 461.6c0-1.6-1.3-2.9-2.8-2.9s-2.9 1.3-2.8 2.9c0 1.6 1.3 2.9 2.8 2.8 1.5 0 2.8-1.3 2.8-2.8M283.6 461.6c0-1.6-1.3-2.9-2.8-2.9-1.6 0-2.9 1.3-2.8 2.9 0 1.6 1.3 2.8 2.8 2.8s2.8-1.3 2.8-2.8M305.4 461.6c0-1.6-1.3-2.9-2.8-2.9-1.6 0-2.9 1.3-2.8 2.9 0 1.6 1.3 2.8 2.8 2.8s2.8-1.3 2.8-2.8M327.2 461.6c0-1.6-1.3-2.9-2.8-2.9-1.6 0-2.9 1.3-2.8 2.9 0 1.6 1.3 2.9 2.9 2.9 1.5-.1 2.7-1.3 2.7-2.9M349 461.6c0-1.6-1.3-2.9-2.8-2.9-1.6 0-2.9 1.3-2.8 2.9 0 1.6 1.3 2.9 2.8 2.8 1.6 0 2.8-1.3 2.8-2.8M370.9 461.6c0-1.6-1.3-2.9-2.8-2.9s-2.9 1.3-2.9 2.9 1.3 2.8 2.8 2.8 2.9-1.3 2.9-2.8M392.7 461.6c0-1.6-1.3-2.9-2.9-2.9s-2.9 1.3-2.9 2.9 1.3 2.8 2.9 2.8 2.9-1.3 2.9-2.8M414.5 461.6c0-1.6-1.3-2.9-2.9-2.9s-2.8 1.3-2.8 2.9 1.3 2.8 2.8 2.8 2.9-1.3 2.9-2.8M436.3 461.6c0-1.6-1.3-2.9-2.8-2.9s-2.9 1.3-2.9 2.9 1.3 2.9 2.9 2.9c1.5-.1 2.8-1.3 2.8-2.9M218.2 439.8c0-1.6-1.3-2.9-2.9-2.9s-2.8 1.3-2.9 2.9c0 1.6 1.3 2.8 2.9 2.9 1.6-.1 2.9-1.3 2.9-2.9M240 439.8c0-1.6-1.3-2.9-2.8-2.8-1.6 0-2.9 1.3-2.8 2.8 0 1.6 1.3 2.9 2.8 2.8 1.5 0 2.8-1.2 2.8-2.8M261.8 439.8c0-1.6-1.3-2.9-2.8-2.8-1.6 0-2.9 1.3-2.8 2.8 0 1.6 1.3 2.9 2.8 2.8 1.5 0 2.8-1.2 2.8-2.8M283.6 439.8c0-1.6-1.3-2.9-2.8-2.8-1.6 0-2.9 1.3-2.8 2.8 0 1.6 1.3 2.9 2.8 2.8 1.5 0 2.8-1.2 2.8-2.8M305.4 439.8c0-1.6-1.3-2.8-2.8-2.8-1.6 0-2.9 1.3-2.9 2.9s1.3 2.9 2.8 2.8c1.6-.1 2.9-1.3 2.9-2.9M327.2 439.8c0-1.6-1.3-2.9-2.8-2.8-1.6 0-2.8 1.3-2.9 2.9 0 1.6 1.3 2.8 2.8 2.8s2.9-1.3 2.9-2.9M349 439.8c0-1.6-1.3-2.8-2.9-2.9-1.6 0-2.9 1.3-2.8 2.8 0 1.6 1.3 2.9 2.9 2.9s2.8-1.2 2.8-2.8M370.9 439.8c0-1.6-1.3-2.8-2.9-2.9-1.6 0-2.9 1.3-2.9 2.9s1.3 2.8 2.9 2.9c1.6-.1 2.8-1.3 2.9-2.9M392.7 439.8c0-1.6-1.3-2.8-2.8-2.8-1.6 0-2.9 1.3-2.9 2.9s1.3 2.8 2.9 2.8 2.8-1.3 2.8-2.9M414.5 439.8c0-1.6-1.3-2.9-2.9-2.9s-2.8 1.3-2.8 2.9 1.3 2.8 2.8 2.8 2.9-1.2 2.9-2.8M436.3 439.8c0-1.6-1.3-2.9-2.9-2.9s-2.8 1.3-2.9 2.9c0 1.6 1.3 2.9 2.9 2.9 1.6-.1 2.9-1.3 2.9-2.9M218.2 418c0-1.6-1.3-2.9-2.9-2.9s-2.8 1.3-2.8 2.8c0 1.6 1.3 2.9 2.9 2.9 1.5 0 2.8-1.3 2.8-2.8M240 418c0-1.6-1.3-2.9-2.9-2.9s-2.8 1.3-2.8 2.8c0 1.6 1.3 2.9 2.9 2.9 1.5 0 2.8-1.3 2.8-2.8M261.8 418c0-1.6-1.3-2.9-2.8-2.9s-2.9 1.3-2.9 2.9 1.3 2.9 2.8 2.8c1.6 0 2.9-1.3 2.9-2.8M283.6 418c0-1.6-1.3-2.9-2.8-2.9-1.6 0-2.8 1.3-2.8 2.8 0 1.6 1.3 2.9 2.9 2.9 1.4 0 2.7-1.3 2.7-2.8M305.4 418c0-1.6-1.3-2.9-2.8-2.9-1.6 0-2.9 1.3-2.9 2.9s1.3 2.9 2.9 2.9 2.8-1.4 2.8-2.9M327.2 418c0-1.6-1.3-2.8-2.8-2.9-1.6 0-2.9 1.3-2.9 2.9s1.3 2.9 2.9 2.9c1.6-.1 2.8-1.4 2.8-2.9M349 418c0-1.6-1.3-2.9-2.8-2.8-1.6 0-2.9 1.3-2.8 2.8 0 1.6 1.3 2.9 2.9 2.9 1.5-.1 2.8-1.4 2.7-2.9M370.9 418c0-1.6-1.3-2.9-2.9-2.9s-2.9 1.3-2.9 2.9 1.3 2.8 2.9 2.9c1.6-.1 2.8-1.4 2.9-2.9M392.7 418c0-1.6-1.3-2.9-2.9-2.9s-2.9 1.3-2.9 2.8c0 1.6 1.3 2.9 2.9 2.9s2.9-1.3 2.9-2.8M414.5 418c0-1.6-1.3-2.9-2.9-2.8-1.6 0-2.8 1.3-2.8 2.8s1.3 2.8 2.8 2.8c1.6 0 2.9-1.3 2.9-2.8M436.3 418c0-1.6-1.3-2.9-2.9-2.9s-2.9 1.3-2.9 2.9 1.3 2.8 2.9 2.9c1.6-.1 2.9-1.4 2.9-2.9M218.2 396.1c0-1.6-1.3-2.9-2.9-2.9s-2.8 1.3-2.8 2.8 1.3 2.9 2.9 2.9c1.5.1 2.8-1.2 2.8-2.8M240 396.1c0-1.6-1.3-2.9-2.9-2.9s-2.9 1.3-2.9 2.9 1.3 2.9 2.9 2.9 2.9-1.3 2.9-2.9M261.8 396.1c0-1.6-1.3-2.9-2.8-2.9s-2.8 1.3-2.9 2.9c0 1.6 1.3 2.9 2.9 2.9 1.5 0 2.8-1.3 2.8-2.9M283.6 396.1c0-1.6-1.3-2.8-2.8-2.9-1.6 0-2.8 1.3-2.9 2.9 0 1.6 1.3 2.9 2.9 2.9 1.5 0 2.8-1.3 2.8-2.9M305.4 396.1c0-1.6-1.3-2.8-2.8-2.8-1.6 0-2.9 1.3-2.9 2.9s1.3 2.9 2.8 2.8c1.6 0 2.9-1.3 2.9-2.9M327.2 396.1c0-1.6-1.3-2.8-2.8-2.8-1.6 0-2.9 1.3-2.9 2.9s1.3 2.9 2.8 2.8c1.7 0 2.9-1.3 2.9-2.9M349 396.1c0-1.6-1.3-2.9-2.8-2.9s-2.9 1.3-2.9 2.9 1.3 2.9 2.8 2.8c1.7.1 2.9-1.2 2.9-2.8M370.9 396.1c0-1.6-1.3-2.9-2.8-2.8-1.6 0-2.8 1.3-2.8 2.8 0 1.6 1.3 2.9 2.8 2.8 1.5.1 2.8-1.2 2.8-2.8M392.7 396.1c0-1.6-1.3-2.9-2.9-2.9s-2.9 1.3-2.9 2.9 1.3 2.9 2.9 2.9 2.9-1.3 2.9-2.9M414.5 396.1c0-1.6-1.3-2.9-2.9-2.9s-2.8 1.3-2.8 2.9 1.3 2.8 2.8 2.8c1.6.1 2.9-1.2 2.9-2.8M436.3 396.1c0-1.6-1.3-2.9-2.8-2.8-1.6 0-2.8 1.3-2.8 2.8 0 1.6 1.3 2.9 2.8 2.8 1.5.1 2.8-1.2 2.8-2.8M218.2 374.3c0-1.6-1.3-2.9-2.9-2.9s-2.8 1.3-2.8 2.8c0 1.6 1.3 2.9 2.9 2.9 1.5.1 2.8-1.2 2.8-2.8M240 374.3c0-1.6-1.3-2.9-2.9-2.9s-2.8 1.3-2.8 2.8 1.3 2.9 2.9 2.9c1.5.1 2.8-1.2 2.8-2.8M261.8 374.3c0-1.6-1.3-2.9-2.8-2.9s-2.9 1.3-2.9 2.9 1.3 2.9 2.8 2.8c1.6.1 2.9-1.2 2.9-2.8M283.6 374.3c0-1.6-1.3-2.9-2.8-2.9-1.6 0-2.9 1.3-2.8 2.8 0 1.6 1.3 2.9 2.9 2.9 1.4.1 2.7-1.2 2.7-2.8M305.4 374.3c0-1.6-1.3-2.8-2.8-2.8-1.6 0-2.9 1.3-2.9 2.9s1.3 2.9 2.8 2.8c1.6 0 2.9-1.3 2.9-2.9M327.2 374.3c0-1.6-1.3-2.8-2.8-2.8-1.6 0-2.9 1.3-2.9 2.9s1.3 2.9 2.8 2.8c1.7 0 2.9-1.3 2.9-2.9M349 374.3c0-1.6-1.3-2.9-2.8-2.9s-2.9 1.3-2.9 2.9 1.3 2.9 2.8 2.8c1.7.1 2.9-1.2 2.9-2.8M370.9 374.3c0-1.6-1.3-2.8-2.8-2.8s-2.9 1.3-2.9 2.9 1.3 2.8 2.8 2.8c1.6 0 2.9-1.3 2.9-2.9M392.7 374.3c0-1.6-1.3-2.9-2.8-2.8-1.6 0-2.9 1.3-2.9 2.9s1.3 2.8 2.9 2.8 2.8-1.3 2.8-2.9M414.5 374.3c0-1.6-1.3-2.9-2.9-2.9s-2.8 1.3-2.8 2.9 1.3 2.8 2.8 2.8c1.6.1 2.9-1.2 2.9-2.8M436.3 374.3c0-1.6-1.3-2.9-2.9-2.9s-2.8 1.3-2.8 2.8 1.3 2.9 2.9 2.9c1.5.1 2.8-1.2 2.8-2.8M218.2 352.5c0-1.6-1.3-2.9-2.9-2.9s-2.9 1.3-2.9 2.8 1.3 2.9 2.9 2.9c1.6.1 2.8-1.2 2.9-2.8M240 352.5c0-1.6-1.3-2.8-2.9-2.8s-2.9 1.3-2.9 2.8 1.3 2.9 2.9 2.9 2.9-1.3 2.9-2.9M261.8 352.5c0-1.6-1.3-2.8-2.8-2.8s-2.9 1.3-2.9 2.8 1.3 2.8 2.9 2.9c1.5 0 2.8-1.3 2.8-2.9M283.6 352.5c0-1.6-1.3-2.8-2.8-2.8-1.6 0-2.9 1.3-2.9 2.8s1.3 2.9 2.9 2.9c1.5 0 2.8-1.3 2.8-2.9M305.4 352.5c0-1.6-1.3-2.8-2.8-2.8-1.6 0-2.8 1.3-2.8 2.8s1.3 2.8 2.8 2.8c1.5.1 2.8-1.2 2.8-2.8M327.2 352.5c0-1.6-1.3-2.8-2.8-2.8-1.6 0-2.8 1.3-2.8 2.8s1.3 2.9 2.8 2.8c1.6.1 2.8-1.2 2.8-2.8M349 352.5c0-1.6-1.3-2.8-2.8-2.8s-2.8 1.3-2.9 2.8c0 1.6 1.3 2.9 2.9 2.9s2.8-1.3 2.8-2.9M370.9 352.5c0-1.6-1.3-2.8-2.9-2.8s-2.9 1.3-2.9 2.8 1.3 2.8 2.9 2.9c1.6 0 2.9-1.3 2.9-2.9M392.7 352.5c0-1.6-1.3-2.8-2.9-2.8s-2.9 1.3-2.9 2.8 1.3 2.9 2.9 2.9 2.9-1.3 2.9-2.9M414.5 352.5c0-1.6-1.3-2.8-2.9-2.8s-2.8 1.3-2.8 2.8 1.3 2.9 2.8 2.9 2.9-1.3 2.9-2.9M436.3 352.5c0-1.6-1.3-2.9-2.9-2.9s-2.9 1.3-2.9 2.8 1.3 2.9 2.9 2.9c1.6.1 2.9-1.2 2.9-2.8M218.2 330.7c0-1.6-1.3-2.8-2.9-2.9-1.6 0-2.9 1.3-2.9 2.9s1.3 2.9 2.9 2.9 2.9-1.3 2.9-2.9M240 330.7c0-1.6-1.3-2.8-2.9-2.9-1.6 0-2.9 1.3-2.9 2.9s1.3 2.8 2.9 2.9c1.6 0 2.9-1.3 2.9-2.9M261.8 330.7c0-1.6-1.3-2.9-2.8-2.9s-2.9 1.3-2.9 2.9 1.3 2.8 2.9 2.9c1.5 0 2.8-1.3 2.8-2.9M283.6 330.7c0-1.6-1.3-2.8-2.8-2.9-1.6 0-2.9 1.3-2.9 2.9s1.3 2.8 2.9 2.9c1.5 0 2.8-1.3 2.8-2.9M305.4 330.7c0-1.6-1.3-2.9-2.8-2.8-1.6 0-2.9 1.3-2.8 2.8 0 1.6 1.3 2.9 2.8 2.8 1.6 0 2.8-1.2 2.8-2.8M327.2 330.7c0-1.6-1.3-2.9-2.8-2.9-1.6 0-2.8 1.3-2.9 2.9 0 1.6 1.3 2.9 2.9 2.9s2.8-1.3 2.8-2.9M349 330.7c0-1.6-1.3-2.9-2.8-2.9s-2.8 1.3-2.9 2.9c0 1.6 1.3 2.9 2.9 2.9s2.8-1.3 2.8-2.9M370.9 330.7c0-1.6-1.3-2.9-2.8-2.8-1.6 0-2.9 1.3-2.8 2.8 0 1.6 1.3 2.9 2.8 2.8 1.5 0 2.8-1.2 2.8-2.8M392.7 330.7c0-1.6-1.3-2.8-2.8-2.8-1.6 0-2.9 1.3-2.9 2.8s1.3 2.9 2.9 2.8c1.5 0 2.8-1.2 2.8-2.8M414.5 330.7c0-1.6-1.3-2.9-2.9-2.9s-2.8 1.3-2.8 2.9 1.3 2.9 2.8 2.8c1.6 0 2.9-1.2 2.9-2.8M436.3 330.7c0-1.6-1.3-2.9-2.8-2.8-1.6 0-2.9 1.3-2.8 2.8 0 1.6 1.3 2.8 2.8 2.8s2.8-1.2 2.8-2.8M218.2 308.9c0-1.6-1.3-2.8-2.8-2.8-1.6 0-2.9 1.3-2.9 2.9s1.3 2.8 2.8 2.8c1.6-.1 2.9-1.3 2.9-2.9M240 308.9c0-1.6-1.3-2.8-2.9-2.9-1.6 0-2.9 1.3-2.9 2.9s1.3 2.8 2.9 2.8 2.9-1.2 2.9-2.8M261.8 308.9c0-1.6-1.3-2.8-2.8-2.8s-2.8 1.3-2.9 2.9c0 1.6 1.3 2.8 2.9 2.8 1.5 0 2.8-1.3 2.8-2.9M283.6 308.9c0-1.6-1.3-2.9-2.8-2.9-1.6 0-2.9 1.3-2.9 2.9s1.3 2.8 2.9 2.8c1.5 0 2.8-1.2 2.8-2.8M305.4 308.9c0-1.6-1.3-2.9-2.8-2.9-1.6 0-2.8 1.3-2.8 2.8 0 1.6 1.3 2.8 2.9 2.8 1.5.1 2.7-1.1 2.7-2.7M327.2 308.9c0-1.6-1.3-2.9-2.8-2.9-1.6 0-2.8 1.3-2.9 2.9 0 1.6 1.3 2.8 2.9 2.8s2.8-1.2 2.8-2.8M349 308.9c0-1.6-1.3-2.9-2.8-2.9s-2.8 1.3-2.9 2.9c0 1.6 1.3 2.8 2.9 2.8s2.9-1.2 2.8-2.8M370.9 308.9c0-1.6-1.3-2.8-2.8-2.8s-2.9 1.3-2.9 2.9 1.3 2.8 2.8 2.8c1.6-.1 2.9-1.3 2.9-2.9M392.7 308.9c0-1.6-1.3-2.9-2.9-2.9s-2.9 1.3-2.9 2.9 1.3 2.8 2.9 2.8 2.9-1.2 2.9-2.8M414.5 308.9c0-1.6-1.3-2.9-2.9-2.9s-2.8 1.3-2.8 2.9 1.3 2.8 2.8 2.8 2.9-1.2 2.9-2.8M436.3 308.9c0-1.6-1.3-2.8-2.9-2.9-1.6 0-2.9 1.3-2.9 2.9s1.3 2.8 2.9 2.8 2.9-1.2 2.9-2.8M218.2 287.1c0-1.6-1.3-2.8-2.8-2.8-1.6 0-2.9 1.3-2.9 2.9s1.3 2.8 2.9 2.8c1.5-.1 2.8-1.3 2.8-2.9M240 287.1c0-1.6-1.3-2.9-2.8-2.8-1.6 0-2.9 1.3-2.9 2.9s1.3 2.8 2.9 2.8c1.5-.1 2.8-1.3 2.8-2.9M261.8 287.1c0-1.6-1.3-2.8-2.8-2.8s-2.9 1.3-2.8 2.8c0 1.6 1.3 2.8 2.8 2.8s2.8-1.3 2.8-2.8M283.6 287.1c0-1.6-1.3-2.9-2.8-2.9-1.6 0-2.9 1.3-2.9 2.9s1.3 2.8 2.9 2.8c1.5 0 2.8-1.3 2.8-2.8M305.4 287.1c0-1.6-1.3-2.9-2.8-2.9-1.6 0-2.8 1.3-2.8 2.8 0 1.6 1.3 2.8 2.8 2.8 1.5.1 2.8-1.2 2.8-2.7M327.2 287.1c0-1.6-1.3-2.9-2.8-2.9-1.6 0-2.8 1.3-2.8 2.8s1.3 2.8 2.8 2.8 2.8-1.2 2.8-2.7M349 287.1c0-1.6-1.3-2.8-2.8-2.8-1.6 0-2.9 1.3-2.8 2.8 0 1.6 1.3 2.8 2.8 2.8s2.8-1.3 2.8-2.8M370.9 287.1c0-1.6-1.3-2.8-2.9-2.9-1.6 0-2.8 1.3-2.9 2.9 0 1.6 1.3 2.8 2.9 2.8s2.9-1.3 2.9-2.8M392.7 287.1c0-1.6-1.3-2.9-2.9-2.9s-2.9 1.3-2.9 2.9 1.3 2.8 2.9 2.8 2.9-1.3 2.9-2.8M414.5 287.1c0-1.6-1.3-2.8-2.9-2.8s-2.8 1.3-2.8 2.8 1.3 2.8 2.8 2.8c1.6 0 2.9-1.3 2.9-2.8M436.3 287.1c0-1.6-1.3-2.8-2.8-2.8-1.6 0-2.9 1.3-2.9 2.9s1.3 2.8 2.9 2.8c1.5-.1 2.8-1.3 2.8-2.9" class="st6"/></g></svg>