<svg xmlns="http://www.w3.org/2000/svg" id="Capa_1" data-name="Capa 1" viewBox="0 0 559.91 446.1"><defs><style>.cls-6{fill:none;stroke:#fff;stroke-miterlimit:10}.cls-6{stroke-width:4px}</style></defs><g style="opacity:.4"><path d="m236.61 166.2-33.6-33.6M219.81 166.2l-33.6-33.6M203.01 166.2l-33.6-33.6M186.21 166.2l-33.6-33.6M169.41 166.2l-33.6-33.6M152.61 166.2l-33.6-33.6M135.81 166.2l-33.6-33.6M119.01 166.2l-33.6-33.6M102.21 166.2l-33.6-33.6M85.41 166.2l-33.6-33.6M68.61 166.2l-33.6-33.6M51.81 166.2l-33.6-33.6M35.01 166.2l-33.6-33.6" class="cls-6"/></g><circle cx="477.01" cy="253.1" r="75.9" style="opacity:.4;isolation:isolate;fill:none;stroke:#fff;stroke-miterlimit:10;stroke-width:14px"/><path d="M158.21 3.5h79.3v79.3h-79.3z" style="opacity:.4;isolation:isolate;fill:none;stroke:#fff;stroke-miterlimit:10;stroke-linecap:round;stroke-width:7px"/><path d="M260.21 166.9h41.9v41.9h-41.9z" style="opacity:.4;isolation:isolate;fill:#fff"/><path d="M350.61 106.2c10.5-10.5 27.5-10.5 38 0s10.5 27.5 0 37.9-27.5 10.5-38 0-10.5-27.4 0-37.9Z" style="stroke-width:8px;opacity:.4;isolation:isolate;fill:none;stroke:#fff;stroke-miterlimit:10"/></svg>