<svg xmlns="http://www.w3.org/2000/svg" id="Capa_1" data-name="Capa 1" viewBox="0 0 559.91 446.1"><defs><style>.cls-1{fill:#fff}.cls-4{opacity:.4}.cls-7{fill:none;stroke:#fff;stroke-miterlimit:10}.cls-7{stroke-width:4px}</style></defs><g class="cls-4"><path d="m356.9 132.6-33.6 33.6M373.7 132.6l-33.6 33.6M390.5 132.6l-33.6 33.6M407.3 132.6l-33.6 33.6M424.1 132.6l-33.6 33.6M440.9 132.6l-33.6 33.6M457.7 132.6l-33.6 33.6M474.5 132.6l-33.6 33.6M491.3 132.6l-33.6 33.6M508.1 132.6l-33.6 33.6M524.9 132.6l-33.6 33.6M541.7 132.6l-33.6 33.6M558.5 132.6l-33.6 33.6" class="cls-7"/></g><circle cx="82.9" cy="253.1" r="75.9" style="opacity:.4;isolation:isolate;fill:none;stroke:#fff;stroke-miterlimit:10;stroke-width:14px"/><path d="M322.4 3.5h79.3v79.3h-79.3z" style="opacity:.4;isolation:isolate;fill:none;stroke:#fff;stroke-miterlimit:10;stroke-linecap:round;stroke-width:7px"/><path d="M257.8 166.9h41.9v41.9h-41.9z" style="fill:#fff;opacity:.4;isolation:isolate"/><path d="M209.3 144.1c-10.5 10.5-27.5 10.4-38 0s-10.5-27.4 0-37.9 27.5-10.5 38 0 10.5 27.4 0 37.9Z" style="stroke-width:8px;opacity:.4;isolation:isolate;fill:none;stroke:#fff;stroke-miterlimit:10"/><g class="cls-4"><path d="M421.7 446.1c1.5 0 2.8-1.2 2.8-2.8s-1.3-2.9-2.9-2.9c-1.5-.1-2.8 1.2-2.8 2.8s1.3 2.9 2.9 2.9M399.8 446c1.6 0 2.9-1.3 2.9-2.9.1-1.5-1.2-2.8-2.8-2.8s-2.9 1.3-2.9 2.9 1.3 2.9 2.8 2.8M375.2 443.2c0 1.6 1.3 2.9 2.8 2.8 1.5.1 2.8-1.2 2.8-2.8s-1.2-2.8-2.8-2.8c-1.5-.1-2.8 1.2-2.8 2.8M356.2 446.1c1.6-.1 2.9-1.3 2.9-2.9s-1.3-2.9-2.9-2.9c-1.5 0-2.8 1.3-2.8 2.9s1.3 2.9 2.8 2.9M334.4 446.1c1.6 0 2.9-1.3 2.9-2.9-.1-1.6-1.3-2.9-2.9-2.9-1.5 0-2.8 1.3-2.8 2.9s1.3 2.9 2.8 2.9M312.6 446c1.5.1 2.8-1.2 2.8-2.8s-1.2-2.8-2.8-2.8c-1.5-.1-2.8 1.2-2.8 2.8s1.2 2.9 2.8 2.8M288 443.2c0 1.6 1.2 2.8 2.8 2.7 1.5.1 2.8-1.2 2.8-2.8s-1.3-2.8-2.8-2.8-2.8 1.3-2.8 2.9M269 446.1c1.6 0 2.9-1.3 2.9-2.9-.1-1.6-1.3-2.9-2.9-2.9-1.6.1-2.9 1.3-2.9 2.9s1.3 2.9 2.9 2.9M244.3 443.2c0 1.6 1.3 2.8 2.9 2.8s2.9-1.2 2.9-2.8-1.3-2.9-2.9-2.9c-1.6.1-2.9 1.3-2.9 2.9M225.4 446.1c1.5-.1 2.8-1.3 2.8-2.9s-1.2-2.9-2.8-2.9c-1.6.1-2.9 1.3-2.9 2.9s1.3 2.9 2.9 2.9M203.6 446.1c1.6 0 2.9-1.3 2.9-2.9-.1-1.6-1.3-2.9-2.9-2.9-1.6.1-2.9 1.3-2.9 2.9s1.3 2.9 2.9 2.9M421.7 424.3c1.5.1 2.8-1.2 2.8-2.8s-1.3-2.9-2.9-2.9c-1.5 0-2.8 1.2-2.8 2.8s1.3 2.8 2.9 2.9M399.9 424.3c1.6 0 2.9-1.3 2.9-2.9s-1.3-2.9-2.9-2.9c-1.6.1-2.9 1.3-2.9 2.9s1.3 2.9 2.9 2.9M375.2 421.4c0 1.6 1.3 2.8 2.9 2.8 1.5 0 2.8-1.2 2.8-2.8s-1.4-2.9-2.9-2.9-2.8 1.3-2.8 2.9M356.3 424.3c1.5 0 2.8-1.2 2.8-2.8s-1.3-2.9-2.9-2.9c-1.5-.1-2.8 1.2-2.8 2.8s1.4 2.9 2.9 2.9M334.3 424.2c1.6 0 2.9-1.3 2.9-2.9s-1.2-2.8-2.8-2.8c-1.5 0-2.8 1.3-2.8 2.9s1.2 2.8 2.7 2.8M312.5 424.2c1.6 0 2.9-1.3 2.9-2.9.1-1.5-1.2-2.8-2.8-2.8-1.5 0-2.8 1.3-2.8 2.9s1.2 2.8 2.7 2.8M288 421.4c0 1.6 1.2 2.8 2.9 2.8 1.5.1 2.8-1.2 2.8-2.8s-1.4-2.9-2.9-2.9-2.8 1.3-2.8 2.9M269 424.3c1.6 0 2.9-1.3 2.9-2.9s-1.3-2.9-2.9-2.9c-1.6.1-2.9 1.3-2.9 2.9.1 1.6 1.3 2.8 2.9 2.9M244.3 421.4c0 1.6 1.3 2.8 2.9 2.8s2.9-1.2 2.9-2.8-1.3-2.9-2.9-2.9-2.9 1.3-2.9 2.9M225.4 424.3c1.5 0 2.8-1.3 2.8-2.9s-1.2-2.9-2.8-2.9-2.9 1.3-2.9 2.9 1.4 2.9 2.9 2.9M203.6 424.3c1.6 0 2.9-1.3 2.9-2.9s-1.3-2.9-2.9-2.9c-1.6.1-2.9 1.3-2.9 2.9s1.3 2.8 2.9 2.9M418.8 399.6c0 1.6 1.3 2.8 2.8 2.9 1.6 0 2.9-1.3 2.9-2.9s-1.3-2.9-2.9-2.9c-1.5 0-2.8 1.3-2.8 2.9M397 399.6c0 1.6 1.3 2.8 2.8 2.9 1.6 0 2.9-1.3 2.9-2.9s-1.3-2.9-2.9-2.9c-1.5 0-2.8 1.3-2.8 2.9M378 402.4c1.5.1 2.8-1.2 2.8-2.8.1-1.6-1.3-2.9-2.8-2.9s-2.8 1.3-2.8 2.9 1.3 2.8 2.8 2.8M356.2 402.4c1.5 0 2.8-1.2 2.8-2.8.1-1.6-1.2-2.9-2.8-2.9-1.5 0-2.8 1.3-2.8 2.9s1.3 2.8 2.8 2.8M331.6 399.6c0 1.5 1.3 2.8 2.8 2.8s2.8-1.2 2.8-2.8c.1-1.6-1.2-2.9-2.8-2.9-1.5 0-2.8 1.3-2.8 2.9M309.8 399.6c0 1.6 1.2 2.8 2.7 2.9 1.6 0 2.9-1.3 2.9-2.9.1-1.6-1.2-2.9-2.8-2.9-1.5 0-2.8 1.3-2.8 2.9M290.8 402.4c1.5.1 2.8-1.2 2.8-2.8.1-1.6-1.2-2.9-2.8-2.9-1.5 0-2.8 1.3-2.8 2.9s1.2 2.8 2.8 2.8M266.1 399.6c0 1.5 1.4 2.8 2.9 2.8s2.8-1.2 2.8-2.8-1.4-2.9-2.9-2.9-2.8 1.3-2.8 2.9M244.3 399.6c0 1.5 1.3 2.8 2.9 2.8s2.9-1.2 2.9-2.8-1.3-2.9-2.9-2.9-2.9 1.3-2.9 2.9M225.4 402.4c1.5 0 2.8-1.2 2.8-2.8s-1.2-2.9-2.8-2.9-2.9 1.3-2.9 2.9 1.4 2.8 2.9 2.8M200.7 399.6c0 1.6 1.3 2.8 2.8 2.9 1.6 0 2.9-1.3 2.9-2.9s-1.4-2.9-2.9-2.9-2.8 1.3-2.8 2.9M421.7 380.7c1.6-.1 2.9-1.3 2.9-2.9-.1-1.6-1.3-2.9-2.9-2.9s-2.9 1.3-2.9 2.9 1.3 2.8 2.9 2.9M399.8 380.6c1.5.1 2.8-1.2 2.8-2.8.1-1.5-1.2-2.8-2.8-2.8-1.5-.1-2.8 1.2-2.8 2.8s1.3 2.8 2.8 2.8M378 380.6c1.5.1 2.8-1.2 2.8-2.8.1-1.5-1.2-2.8-2.8-2.8-1.5-.1-2.8 1.2-2.8 2.8s1.3 2.8 2.8 2.8M356.2 380.6c1.5.1 2.8-1.2 2.8-2.8.1-1.5-1.2-2.8-2.8-2.8-1.5-.1-2.8 1.2-2.8 2.8s1.3 2.8 2.8 2.8M334.5 380.7c1.5.1 2.8-1.2 2.8-2.8s-1.3-2.9-2.9-2.9c-1.5 0-2.8 1.2-2.8 2.8s1.3 2.8 2.9 2.9M312.7 380.7c1.5 0 2.8-1.2 2.8-2.8-.1-1.6-1.3-2.9-2.9-2.9-1.5-.1-2.8 1.2-2.8 2.8s1.4 2.9 2.9 2.9M290.8 380.6c1.6 0 2.9-1.3 2.9-2.9.1-1.5-1.2-2.8-2.8-2.8-1.6.1-2.9 1.3-2.9 2.9s1.2 2.8 2.8 2.8M269 380.7c1.6-.1 2.9-1.3 2.9-2.9s-1.3-2.9-2.9-2.9c-1.6.1-2.9 1.3-2.9 2.9.1 1.6 1.3 2.8 2.9 2.9M244.3 377.8c0 1.6 1.2 2.9 2.8 2.9s2.9-1.2 2.9-2.8-1.3-2.9-2.9-2.9c-1.5 0-2.8 1.2-2.8 2.8M225.4 380.6c1.5 0 2.8-1.2 2.8-2.8s-1.2-2.9-2.8-2.9-2.9 1.3-2.9 2.9 1.4 2.8 2.9 2.8M203.6 380.7c1.6 0 2.9-1.3 2.9-2.9-.1-1.6-1.3-2.9-2.9-2.9s-2.9 1.3-2.9 2.9 1.3 2.8 2.9 2.9M421.6 358.8c1.6 0 2.9-1.3 2.9-2.9 0-1.5-1.2-2.8-2.8-2.8s-2.9 1.3-2.9 2.9 1.3 2.8 2.8 2.8M399.8 358.8c1.6 0 2.9-1.3 2.9-2.9 0-1.5-1.2-2.8-2.8-2.8s-2.9 1.3-2.9 2.9 1.3 2.8 2.8 2.8M375.2 356c0 1.5 1.3 2.8 2.9 2.8 1.5.1 2.8-1.2 2.8-2.8s-1.4-2.9-2.9-2.9-2.8 1.3-2.8 2.9M356.1 358.8c1.6 0 2.9-1.3 2.9-2.9 0-1.5-1.2-2.8-2.8-2.8-1.5 0-2.8 1.3-2.8 2.9s1.3 2.8 2.7 2.8M334.4 358.9c1.6 0 2.9-1.3 2.9-2.9s-1.3-2.9-2.9-2.9c-1.5 0-2.8 1.3-2.8 2.9s1.2 2.9 2.8 2.9M312.6 358.9c1.6 0 2.9-1.3 2.9-2.9s-1.3-2.9-2.9-2.9c-1.5.1-2.8 1.3-2.8 2.9s1.2 2.8 2.8 2.9M288 356c-.1 1.5 1.2 2.8 2.7 2.9 1.6 0 2.9-1.3 2.9-2.9.1-1.5-1.2-2.8-2.8-2.8-1.5-.1-2.8 1.2-2.8 2.8M269 358.9c1.6-.1 2.9-1.3 2.9-2.9s-1.3-2.9-2.9-2.9-2.9 1.3-2.9 2.9c.1 1.5 1.3 2.8 2.9 2.9M244.3 356c0 1.5 1.3 2.8 2.9 2.8s2.9-1.3 2.9-2.9-1.3-2.8-2.9-2.8-2.9 1.3-2.9 2.9M222.5 356c0 1.5 1.3 2.8 2.9 2.8 1.5 0 2.8-1.3 2.8-2.8s-1.2-2.8-2.8-2.8c-1.6-.1-2.9 1.2-2.9 2.8M203.6 358.9c1.6-.1 2.9-1.3 2.9-2.9s-1.3-2.9-2.9-2.9-2.9 1.3-2.9 2.9 1.3 2.8 2.9 2.9M421.6 336.9c1.6 0 2.9-1.4 2.9-2.9s-1.2-2.8-2.8-2.8-2.9 1.3-2.9 2.9 1.3 2.9 2.8 2.8M399.9 337c1.6 0 2.9-1.3 2.9-2.9s-1.3-2.9-2.9-2.9-2.9 1.3-2.9 2.9 1.3 2.9 2.9 2.9M375.2 334.1c0 1.6 1.3 2.9 2.8 2.9 1.6 0 2.9-1.3 2.9-2.9-.1-1.6-1.4-2.9-2.9-2.9s-2.8 1.3-2.8 2.9M356.2 337c1.6 0 2.9-1.3 2.9-2.9-.1-1.6-1.3-2.9-2.9-2.9-1.5.1-2.8 1.3-2.8 2.9s1.3 2.9 2.8 2.9M334.5 337c1.5.1 2.8-1.2 2.8-2.8s-1.3-2.9-2.9-2.9c-1.5 0-2.8 1.2-2.8 2.8s1.3 2.9 2.9 2.9M312.7 337c1.5.1 2.8-1.2 2.8-2.8s-1.3-2.9-2.9-2.9c-1.5 0-2.8 1.2-2.8 2.8s1.2 2.9 2.9 2.9M288 334.1c0 1.6 1.2 2.9 2.9 2.8 1.5.1 2.8-1.2 2.8-2.8s-1.4-2.9-2.9-2.9-2.8 1.3-2.8 2.9M268.9 336.9c1.5.1 2.8-1.2 2.8-2.8 0-1.5-1.2-2.8-2.8-2.8-1.5-.1-2.8 1.2-2.8 2.8s1.3 2.9 2.8 2.8M247.2 337c1.6 0 2.9-1.3 2.9-2.9s-1.3-2.9-2.9-2.9-2.9 1.3-2.9 2.9 1.3 2.9 2.9 2.9M222.5 334.1c0 1.6 1.3 2.9 2.9 2.8 1.5 0 2.8-1.2 2.8-2.8s-1.2-2.9-2.8-2.9-2.9 1.3-2.9 2.9M203.5 336.9c1.5.1 2.8-1.2 2.8-2.8 0-1.5-1.2-2.8-2.8-2.8-1.5-.1-2.8 1.2-2.8 2.8s1.3 2.9 2.8 2.8M421.6 315.1c1.6 0 2.9-1.3 2.9-2.9 0-1.5-1.2-2.8-2.8-2.8s-2.9 1.3-2.9 2.9 1.3 2.9 2.8 2.8M399.8 315.1c1.6 0 2.9-1.4 2.9-2.9s-1.2-2.8-2.8-2.8-2.9 1.3-2.9 2.9 1.3 2.9 2.8 2.8M375.2 312.3c0 1.6 1.3 2.9 2.9 2.8 1.5.1 2.8-1.2 2.8-2.8s-1.4-2.9-2.9-2.9-2.8 1.3-2.8 2.9M356.1 315.1c1.6 0 2.9-1.3 2.9-2.9.1-1.5-1.2-2.8-2.8-2.8-1.5 0-2.8 1.3-2.8 2.9s1.3 2.9 2.7 2.8M334.5 315.2c1.5.1 2.8-1.2 2.8-2.8s-1.3-2.9-2.9-2.9c-1.5 0-2.8 1.2-2.8 2.8s1.3 2.9 2.9 2.9M312.7 315.2c1.5.1 2.8-1.2 2.8-2.8s-1.3-2.9-2.9-2.9c-1.5 0-2.8 1.2-2.8 2.8s1.2 2.9 2.9 2.9M288 312.3c0 1.6 1.2 2.9 2.9 2.8 1.5.1 2.8-1.2 2.8-2.8s-1.4-2.9-2.9-2.9-2.8 1.3-2.8 2.9M269 315.2c1.5 0 2.8-1.2 2.8-2.8s-1.4-2.9-2.9-2.9-2.8 1.2-2.8 2.8 1.3 2.9 2.9 2.9M244.3 312.3c0 1.6 1.2 2.9 2.8 2.9s2.9-1.2 2.9-2.8-1.3-2.9-2.9-2.9c-1.5-.1-2.8 1.2-2.8 2.8M225.4 315.1c1.5 0 2.8-1.2 2.8-2.8s-1.2-2.9-2.8-2.9-2.9 1.3-2.9 2.9 1.3 2.9 2.9 2.8M203.5 315.1c1.6 0 2.9-1.4 2.9-2.9s-1.2-2.8-2.8-2.8-2.9 1.3-2.9 2.9 1.3 2.9 2.8 2.8M418.8 290.5c.1 1.6 1.3 2.9 2.9 2.8 1.6 0 2.9-1.4 2.9-2.9s-1.3-2.8-2.9-2.8-2.9 1.3-2.9 2.9M399.9 293.4c1.6 0 2.9-1.4 2.9-2.9s-1.3-2.8-2.9-2.8-2.9 1.2-2.9 2.8 1.3 2.9 2.9 2.9M375.2 290.5c0 1.6 1.3 2.9 2.8 2.9 1.6-.1 2.9-1.4 2.9-2.9s-1.4-2.8-2.9-2.8-2.8 1.2-2.8 2.8M353.4 290.5c0 1.6 1.3 2.9 2.8 2.9 1.6 0 2.9-1.4 2.9-2.9s-1.3-2.8-2.9-2.8c-1.5 0-2.8 1.2-2.8 2.8M331.6 290.5c0 1.6 1.3 2.9 2.8 2.8 1.5 0 2.8-1.3 2.8-2.8s-1.2-2.8-2.8-2.8c-1.5 0-2.8 1.2-2.8 2.8M309.8 290.5c0 1.6 1.2 2.9 2.8 2.8 1.5.1 2.8-1.3 2.8-2.8s-1.2-2.8-2.8-2.8c-1.5 0-2.8 1.2-2.8 2.8M290.8 293.4c1.6 0 2.9-1.3 2.9-2.9-.1-1.5-1.4-2.8-2.9-2.8s-2.8 1.2-2.8 2.8 1.2 2.9 2.8 2.9M269 293.4c1.6-.1 2.9-1.4 2.9-2.9s-1.3-2.8-2.9-2.8-2.9 1.2-2.9 2.8 1.3 2.9 2.9 2.9M247.2 293.4c1.6 0 2.9-1.4 2.9-2.9s-1.3-2.8-2.9-2.8-2.9 1.2-2.9 2.8 1.3 2.9 2.9 2.9M225.4 293.4c1.5 0 2.8-1.4 2.8-2.9s-1.2-2.8-2.8-2.8-2.9 1.2-2.9 2.8 1.4 2.9 2.9 2.9M200.7 290.5c0 1.6 1.3 2.9 2.9 2.8 1.6 0 2.9-1.4 2.9-2.9s-1.3-2.8-2.9-2.8-2.9 1.3-2.9 2.9M421.7 271.6c1.6 0 2.9-1.3 2.9-2.9s-1.3-2.9-2.9-2.9c-1.6.1-2.9 1.3-2.9 2.9s1.3 2.9 2.9 2.9M399.9 271.6c1.6-.1 2.9-1.3 2.9-2.9s-1.3-2.9-2.9-2.9c-1.6.1-2.9 1.3-2.9 2.9s1.3 2.9 2.9 2.9M378 271.6c1.6-.1 2.9-1.3 2.9-2.9s-1.4-2.9-2.9-2.9-2.8 1.3-2.8 2.9 1.3 2.9 2.8 2.9M356.2 271.6c1.6-.1 2.9-1.3 2.9-2.9s-1.3-2.9-2.9-2.9c-1.5.1-2.8 1.3-2.8 2.9s1.3 2.9 2.8 2.9M334.4 271.5c1.5.1 2.8-1.2 2.8-2.8.1-1.5-1.2-2.8-2.8-2.8-1.5-.1-2.8 1.2-2.8 2.8s1.2 2.8 2.8 2.8M312.6 271.6c1.6 0 2.9-1.3 2.9-2.9-.1-1.6-1.3-2.9-2.9-2.9-1.5 0-2.8 1.3-2.8 2.9s1.2 2.9 2.8 2.9M290.8 271.6c1.6 0 2.9-1.3 2.9-2.9-.1-1.6-1.4-2.9-2.9-2.9s-2.8 1.3-2.8 2.9 1.2 2.9 2.8 2.9M268.9 271.5c1.5.1 2.8-1.2 2.8-2.8.1-1.5-1.2-2.8-2.8-2.8-1.5-.1-2.8 1.2-2.8 2.8s1.3 2.8 2.8 2.8M247.1 271.5c1.6.1 2.9-1.3 2.9-2.8s-1.3-2.8-2.9-2.8c-1.5 0-2.8 1.2-2.8 2.8s1.3 2.8 2.8 2.8M225.4 271.5c1.5.1 2.8-1.2 2.8-2.8s-1.2-2.9-2.8-2.9-2.9 1.3-2.9 2.9 1.3 2.8 2.9 2.8M203.5 271.5c1.5 0 2.8-1.2 2.8-2.8.1-1.5-1.2-2.8-2.8-2.8-1.5-.1-2.8 1.2-2.8 2.8s1.3 2.8 2.8 2.8M421.7 249.8c1.5 0 2.8-1.2 2.8-2.8s-1.3-2.9-2.9-2.9c-1.5 0-2.8 1.2-2.8 2.8s1.3 2.8 2.9 2.9M399.9 249.7c1.6 0 2.9-1.2 2.9-2.8s-1.3-2.9-2.9-2.9c-1.6.1-2.9 1.3-2.9 2.9s1.3 2.8 2.9 2.8M375.2 246.9c0 1.6 1.3 2.9 2.8 2.9 1.6 0 2.9-1.2 2.9-2.8-.1-1.6-1.4-2.9-2.9-2.9s-2.8 1.2-2.8 2.8M356.2 249.7c1.6 0 2.9-1.2 2.9-2.8s-1.3-2.9-2.9-2.9c-1.5 0-2.8 1.3-2.8 2.9s1.3 2.8 2.8 2.8M334.3 249.6c1.6 0 2.9-1.2 2.9-2.8s-1.2-2.8-2.8-2.8c-1.5 0-2.8 1.3-2.8 2.9s1.2 2.8 2.7 2.7M312.6 249.7c1.6 0 2.9-1.2 2.9-2.8-.1-1.6-1.3-2.9-2.9-2.9-1.5 0-2.8 1.3-2.8 2.9s1.2 2.8 2.8 2.8M290.8 249.7c1.6 0 2.9-1.2 2.9-2.8-.1-1.6-1.4-2.9-2.9-2.9s-2.8 1.3-2.8 2.9c-.1 1.6 1.2 2.8 2.8 2.8M269 249.8c1.5 0 2.8-1.2 2.8-2.8s-1.4-2.9-2.9-2.9-2.8 1.2-2.8 2.8 1.3 2.8 2.9 2.9M244.3 246.9c0 1.6 1.3 2.8 2.9 2.8s2.9-1.2 2.9-2.8-1.3-2.9-2.9-2.9-2.9 1.3-2.9 2.9M225.4 249.7c1.5 0 2.8-1.2 2.8-2.8s-1.2-2.9-2.8-2.9-2.9 1.3-2.9 2.9 1.4 2.8 2.9 2.8M203.6 249.7c1.6 0 2.9-1.2 2.9-2.8s-1.3-2.9-2.9-2.9c-1.6.1-2.9 1.3-2.9 2.9s1.3 2.8 2.9 2.8M418.8 225.1c0 1.6 1.3 2.8 2.8 2.9 1.6 0 2.9-1.2 2.9-2.8s-1.3-2.9-2.9-2.9c-1.5 0-2.8 1.2-2.8 2.8M397 225.1c0 1.6 1.3 2.8 2.8 2.9 1.6 0 2.9-1.2 2.9-2.8s-1.3-2.9-2.9-2.9c-1.5-.1-2.8 1.2-2.8 2.8M375.2 225.1c0 1.5 1.3 2.8 2.8 2.8s2.8-1.2 2.8-2.8c.1-1.5-1.3-2.8-2.8-2.8s-2.8 1.2-2.8 2.8M353.4 225.1c0 1.5 1.3 2.8 2.8 2.8 1.6 0 2.9-1.2 2.9-2.8s-1.3-2.9-2.9-2.9c-1.5 0-2.8 1.3-2.8 2.9M331.6 225.1c0 1.5 1.3 2.8 2.8 2.7 1.5 0 2.8-1.2 2.8-2.8s-1.2-2.8-2.8-2.8c-1.5 0-2.8 1.3-2.8 2.9M309.8 225.1c0 1.5 1.3 2.7 2.8 2.7s2.8-1.3 2.8-2.8-1.2-2.8-2.8-2.8c-1.5 0-2.8 1.3-2.8 2.9M290.8 227.9c1.5 0 2.8-1.2 2.8-2.8.1-1.5-1.2-2.8-2.8-2.8-1.5 0-2.8 1.2-2.8 2.8 0 1.5 1.3 2.8 2.8 2.8M269 227.9c1.6 0 2.9-1.2 2.9-2.8-.1-1.6-1.3-2.9-2.9-2.9-1.6.1-2.9 1.3-2.9 2.9s1.3 2.8 2.9 2.8M247.2 227.9c1.6 0 2.9-1.2 2.9-2.8s-1.3-2.9-2.9-2.9-2.9 1.3-2.9 2.9 1.3 2.8 2.9 2.8M225.4 227.9c1.5 0 2.8-1.3 2.8-2.8s-1.2-2.8-2.8-2.8-2.9 1.2-2.9 2.8 1.3 2.8 2.9 2.8M200.7 225.1c0 1.6 1.3 2.8 2.8 2.9 1.6 0 2.9-1.2 2.9-2.8s-1.3-2.9-2.9-2.9c-1.5 0-2.8 1.2-2.8 2.8" class="cls-1"/></g></svg>