<svg xmlns="http://www.w3.org/2000/svg" width="24" height="24" fill="#FFF" viewBox="0 -960 960 960"><path d="M480-60q-50 0-85-35t-35-85 35-85 85-35 85 35 35 85-35 85-85 35m0-80q17 0 28.5-11.5T520-180t-11.5-28.5T480-220t-28.5 11.5T440-180t11.5 28.5T480-140m-260-70q-50 0-85-35t-35-85 35-85 85-35 85 35 35 85-35 85-85 35m520 0q-50 0-85-35t-35-85 35-85 85-35 85 35 35 85-35 85-85 35m-520-80q17 0 28.5-11.5T260-330t-11.5-28.5T220-370t-28.5 11.5T180-330t11.5 28.5T220-290m520 0q17 0 28.5-11.5T780-330t-11.5-28.5T740-370t-28.5 11.5T700-330t11.5 28.5T740-290M220-510q-50 0-85-35t-35-85 35-85 85-35 85 35 35 85-35 85-85 35m520 0q-50 0-85-35t-35-85 35-85 85-35 85 35 35 85-35 85-85 35m-520-80q17 0 28.5-11.5T260-630t-11.5-28.5T220-670t-28.5 11.5T180-630t11.5 28.5T220-590m520 0q17 0 28.5-11.5T780-630t-11.5-28.5T740-670t-28.5 11.5T700-630t11.5 28.5T740-590m-260-70q-50 0-85-35t-35-85 35-85 85-35 85 35 35 85-35 85-85 35m0-80q17 0 28.5-11.5T520-780t-11.5-28.5T480-820t-28.5 11.5T440-780t11.5 28.5T480-740"/></svg>